<svg width="38" height="25" viewBox="0 0 38 25" fill="none" xmlns="http://www.w3.org/2000/svg">
<path d="M35.9177 0H2.34232C1.36636 0 0.575195 0.791168 0.575195 1.76712V22.9726C0.575195 23.9486 1.36636 24.7397 2.34232 24.7397H35.9177C36.8936 24.7397 37.6848 23.9486 37.6848 22.9726V1.76712C37.6848 0.791168 36.8936 0 35.9177 0Z" fill="#016FD0"/>
<path d="M19.7171 11.8591V11.1054C19.7056 10.9413 19.6307 10.788 19.5084 10.678C19.3861 10.5679 19.226 10.5095 19.0616 10.5152H18.1037V11.8591H17.1177V7.98553H19.5034C19.6631 7.95963 19.8267 7.97015 19.9818 8.01627C20.137 8.06239 20.2796 8.14296 20.3993 8.25194C20.519 8.36091 20.6125 8.49545 20.673 8.64561C20.7334 8.79578 20.7591 8.95767 20.7482 9.11916C20.7518 9.30654 20.7019 9.49104 20.6045 9.65111C20.507 9.81118 20.366 9.9402 20.1978 10.0231C20.3514 10.1106 20.4775 10.2392 20.562 10.3946C20.6464 10.5499 20.6858 10.7257 20.6758 10.9022V11.8591H19.7127H19.7171ZM18.0994 9.60424H19.1154C19.4105 9.60424 19.6535 9.44075 19.6535 9.23753C19.6535 9.03431 19.4114 8.87001 19.1154 8.87001H18.0994V9.60424Z" fill="#FDFEFD"/>
<path d="M31.3211 11.8574L29.7616 9.26859V11.8574H27.8346L27.4864 11.0446H25.6902L25.349 11.8574H23.8082C23.3995 11.7721 23.0373 11.5375 22.7922 11.1995C22.5471 10.8615 22.4369 10.4443 22.4829 10.0294C22.4829 7.87965 23.9849 7.96443 24.0361 7.95117L25.2484 7.98477V8.85598L24.2526 8.86919C24.2526 8.86919 23.6032 8.86922 23.5245 9.71479C23.5156 9.80286 23.5112 9.89132 23.5113 9.97985C23.4831 10.1302 23.4973 10.2853 23.5523 10.428C23.6073 10.5707 23.701 10.6953 23.8228 10.7877C23.9446 10.8802 24.0898 10.9369 24.242 10.9515C24.3942 10.9661 24.5475 10.9381 24.6847 10.8705L25.904 7.98035H27.2797L28.7543 11.4934V7.98035H30.1441L31.6851 10.5303V7.98035H32.6756V11.8574H31.3211ZM26.108 10.055H27.0641L26.5923 8.90101L26.1072 10.055" fill="#FDFEFD"/>
<path d="M12.0021 11.8588V9.18514L10.7704 11.8588H9.96458L8.72757 9.19749V11.8588H6.78378L6.44274 11.0459H4.64736L4.30006 11.8588H3.22656L4.85843 7.98524H6.24213L7.73626 11.5442V7.98438H9.28951L10.371 10.3894L11.4436 7.98438H12.997V11.8579H11.9994L12.0021 11.8588ZM5.06519 10.0554H6.0221L5.54408 8.90153L5.06519 10.0554" fill="#FDFEFD"/>
<path d="M13.542 11.8588V7.98438H16.6098V8.88827H14.5316V9.48466H16.5568V10.3629H14.5316V11.0185H16.6098V11.857H13.542" fill="#FDFEFD"/>
<path d="M21.1592 11.8721V7.98438H22.1488V11.8721H21.1592Z" fill="#FDFEFD"/>
<path d="M23.5124 16.7878V16.0341C23.5008 15.87 23.426 15.7169 23.3037 15.607C23.1814 15.497 23.0211 15.4388 22.8567 15.4447H21.8998V16.7878H20.9165V12.9142H23.3021C23.4619 12.8883 23.6255 12.8989 23.7806 12.945C23.9358 12.9911 24.0786 13.0717 24.1984 13.1806C24.3181 13.2896 24.4117 13.4241 24.4722 13.5743C24.5327 13.7245 24.5587 13.8863 24.5479 14.0478C24.5514 14.2353 24.5015 14.42 24.404 14.5802C24.3066 14.7404 24.1655 14.8695 23.9974 14.9526C24.1497 15.0407 24.2745 15.1695 24.3578 15.3244C24.4411 15.4794 24.4797 15.6544 24.4693 15.83V16.7878H23.5124ZM21.8998 14.5329H22.916C23.2102 14.5329 23.4532 14.3695 23.4532 14.1663C23.4532 13.963 23.2102 13.7996 22.916 13.7996H21.8998V14.5338" fill="#FDFEFD"/>
<path d="M16.958 16.7824H16.0991L15.0583 15.6338L14.0087 16.7824H10.3516V12.9018H13.9309L15.0592 14.1344L16.1928 12.908H16.9465V12.9018H19.3321C19.4922 12.8776 19.6555 12.8896 19.8104 12.9368C19.9652 12.9839 20.1076 13.0651 20.227 13.1744C20.3464 13.2837 20.4399 13.4182 20.5007 13.5683C20.5614 13.7183 20.5877 13.88 20.5779 14.0416C20.5779 15.1823 20.1644 15.5366 18.8929 15.5366H17.9299V16.7824H16.958V16.7824ZM15.7263 14.8757L16.9447 16.2258V13.5336L15.7263 14.8774V14.8757ZM11.3403 15.9457H13.4113L14.3832 14.8774L13.4113 13.8172H11.3403V14.4127H13.3593V15.2963H11.3403V15.9519V15.9457ZM17.9272 14.5382H18.9433C19.2384 14.5382 19.4814 14.3747 19.4814 14.1715C19.4814 13.9683 19.2384 13.804 18.9433 13.804H17.9272V14.5382Z" fill="#FDFEFD"/>
<path d="M30.2176 16.7755H28.4673V15.8831H30.0011C30.0011 15.8831 30.5516 15.9485 30.5516 15.5756C30.5516 15.2275 29.7193 15.254 29.7193 15.254C29.7193 15.254 28.3621 15.3724 28.3621 14.101C28.3531 13.9391 28.3789 13.7772 28.4377 13.6262C28.4966 13.4752 28.5871 13.3386 28.7033 13.2255C28.8194 13.1125 28.9584 13.0257 29.111 12.9709C29.2635 12.9162 29.4261 12.8948 29.5876 12.9082H31.4757V13.8129H29.9552C29.9552 13.8129 29.4303 13.7078 29.4303 14.0886C29.4303 14.4085 30.1442 14.3634 30.1442 14.3634C30.1442 14.3634 31.6462 14.2521 31.6462 15.4184C31.6663 15.5977 31.6466 15.7792 31.5886 15.9501C31.5306 16.1209 31.4358 16.2769 31.3107 16.4069C31.1856 16.537 31.0335 16.6379 30.865 16.7025C30.6966 16.7671 30.5159 16.7939 30.336 16.7808C30.2618 16.7808 30.2176 16.7755 30.2176 16.7755" fill="#FDFEFD"/>
<path d="M24.9551 16.7825V12.916H28.0219V13.8137H25.9447V14.4092H27.9698V15.2928H25.9447V15.9484H28.0219V16.7869H24.9551" fill="#FDFEFD"/>
<path d="M33.6849 16.7755H31.9346V15.8831H33.4622C33.4622 15.8831 34.0189 15.9485 34.0189 15.5756C34.0189 15.2275 33.1866 15.254 33.1866 15.254C33.1866 15.254 31.8294 15.3724 31.8294 14.101C31.8204 13.9391 31.8461 13.7772 31.905 13.6262C31.9639 13.4752 32.0544 13.3386 32.1705 13.2255C32.2867 13.1125 32.4258 13.0257 32.5784 12.9709C32.7309 12.9162 32.8934 12.8948 33.055 12.9082H34.9369V13.8129H33.4224C33.4224 13.8129 32.8986 13.7078 32.8986 14.0886C32.8986 14.4085 33.6133 14.3634 33.6133 14.3634C33.6133 14.3634 35.1154 14.2521 35.1154 15.4184C35.1354 15.5977 35.1158 15.7792 35.0578 15.9501C34.9998 16.1209 34.9049 16.2769 34.7798 16.4069C34.6547 16.537 34.5026 16.6379 34.3341 16.7025C34.1657 16.7671 33.9851 16.7939 33.8051 16.7808C33.7309 16.7808 33.6858 16.7755 33.6858 16.7755" fill="#FDFEFD"/>
</svg>
