<svg width="38" height="25" viewBox="0 0 38 25" fill="none" xmlns="http://www.w3.org/2000/svg">
<path d="M35.6027 0H2.02738C1.05142 0 0.260254 0.791168 0.260254 1.76712V22.9726C0.260254 23.9486 1.05142 24.7397 2.02738 24.7397H35.6027C36.5787 24.7397 37.3698 23.9486 37.3698 22.9726V1.76712C37.3698 0.791168 36.5787 0 35.6027 0Z" fill="white"/>
<path d="M6.62705 5.30176H5.10645V11.5909H6.62705V5.30176Z" fill="#192C53"/>
<path d="M7.5769 5.30176H7.10596V11.5909H7.5769V5.30176Z" fill="#192C53"/>
<path d="M8.83159 5.30176H7.98779V11.5909H8.83159V5.30176Z" fill="#192C53"/>
<path d="M10.1155 5.30176H9.64453V11.5909H10.1155V5.30176Z" fill="#192C53"/>
<path d="M10.6835 5.30176H10.3203V11.5909H10.6835V5.30176Z" fill="#192C53"/>
<path d="M4.42162 5.30176H3.95068V19.5377H4.42162V5.30176Z" fill="#192C53"/>
<path d="M3.75454 5.30176H2.91162V19.5377H3.75454V5.30176Z" fill="#192C53"/>
<path d="M14.7214 5.30176H13.2017V11.5909H14.7214V5.30176Z" fill="#192C53"/>
<path d="M15.6721 5.30176H15.2012V11.5909H15.6721V5.30176Z" fill="#192C53"/>
<path d="M16.9258 5.30176H16.082V11.5909H16.9258V5.30176Z" fill="#192C53"/>
<path d="M18.2097 5.30176H17.7388V11.5909H18.2097V5.30176Z" fill="#192C53"/>
<path d="M18.7777 5.30176H18.4146V11.5909H18.7777V5.30176Z" fill="#192C53"/>
<path d="M12.5159 5.30176H12.0449V11.5909H12.5159V5.30176Z" fill="#192C53"/>
<path d="M11.8488 5.30176H11.0059V11.5909H11.8488V5.30176Z" fill="#192C53"/>
<path d="M20.2179 5.30176H19.375V11.5909H20.2179V5.30176Z" fill="#192C53"/>
<path d="M21.5028 5.30176H21.0327V11.5909H21.5028V5.30176Z" fill="#192C53"/>
<path d="M22.0715 5.30176H21.7075V11.5909H22.0715V5.30176Z" fill="#192C53"/>
<path d="M23.904 5.30176H23.4331V11.5909H23.904V5.30176Z" fill="#192C53"/>
<path d="M23.2369 5.30176H22.3931V11.5909H23.2369V5.30176Z" fill="#192C53"/>
<path d="M25.0008 5.30176H24.5308V11.5909H25.0008V5.30176Z" fill="#192C53"/>
<path d="M25.5697 5.30176H25.2065V11.5909H25.5697V5.30176Z" fill="#192C53"/>
<path d="M27.4021 5.30176H26.9312V11.5909H27.4021V5.30176Z" fill="#192C53"/>
<path d="M26.7359 5.30176H25.8921V11.5909H26.7359V5.30176Z" fill="#192C53"/>
<path d="M29.3327 5.30176H27.813V11.5909H29.3327V5.30176Z" fill="#192C53"/>
<path d="M30.2825 5.30176H29.8115V11.5909H30.2825V5.30176Z" fill="#192C53"/>
<path d="M31.5381 5.30176H30.6943V11.5909H31.5381V5.30176Z" fill="#192C53"/>
<path d="M32.821 5.30176H32.3501V11.5909H32.821V5.30176Z" fill="#192C53"/>
<path d="M33.389 5.30176H33.0259V11.5909H33.389V5.30176Z" fill="#192C53"/>
<path d="M34.8302 5.30176H33.9873V19.5377H34.8302V5.30176Z" fill="#192C53"/>
<path d="M5.18057 19.2641V12.0454H7.88957C8.34153 12.0283 8.79229 12.1025 9.21491 12.2636C9.53925 12.4025 9.81247 12.6387 9.99687 12.9395C10.1809 13.2233 10.2796 13.5538 10.2814 13.892C10.281 14.2002 10.1941 14.502 10.0304 14.7632C9.84675 15.0508 9.58463 15.2798 9.275 15.4232C9.67318 15.5252 10.0268 15.7552 10.2814 16.0779C10.5188 16.3918 10.6434 16.7766 10.6348 17.17C10.6376 17.4973 10.5641 17.8207 10.4201 18.1145C10.2989 18.3774 10.1173 18.6078 9.88996 18.7869C9.65211 18.9549 9.38381 19.075 9.10005 19.1404C8.71766 19.228 8.32599 19.2687 7.93375 19.2614H5.17969L5.18057 19.2641ZM6.13835 15.0804H7.70226C8.00847 15.091 8.31474 15.0613 8.61321 14.992C8.83141 14.9364 9.02463 14.8092 9.1619 14.6307C9.29043 14.4457 9.35553 14.224 9.34745 13.9989C9.35138 13.7753 9.28996 13.5555 9.17073 13.3663C9.0581 13.185 8.88307 13.0511 8.67859 12.9899C8.31889 12.9078 7.94982 12.8742 7.58121 12.89H6.13835V15.0769V15.0804ZM6.13835 18.4167H7.9364C8.15436 18.4226 8.37243 18.4108 8.58847 18.3814C8.78313 18.352 8.97031 18.2854 9.13981 18.1852C9.29446 18.0849 9.41999 17.9456 9.50384 17.7814C9.6022 17.5935 9.65145 17.3838 9.64698 17.1718C9.65364 16.9201 9.58066 16.6727 9.43845 16.4649C9.29952 16.2646 9.09724 16.1167 8.86414 16.0452C8.52025 15.9521 8.16431 15.9113 7.80828 15.9242H6.13835V18.4141V18.4167Z" fill="#192C53"/>
<path d="M11.5017 16.6479C11.4692 16.2525 11.5249 15.8548 11.6647 15.4836C11.8045 15.1123 12.0249 14.7766 12.3101 14.5008C12.7679 14.1106 13.354 13.9039 13.9553 13.9204C14.2821 13.909 14.6077 13.966 14.9113 14.0877C15.2148 14.2094 15.4896 14.3932 15.718 14.6272C15.9546 14.8901 16.1369 15.1971 16.2543 15.5308C16.3716 15.8644 16.4218 16.2179 16.4019 16.571C16.428 17.1159 16.3245 17.6592 16.0997 18.1562C15.9017 18.5371 15.5939 18.8498 15.2162 19.0539C14.8299 19.2667 14.3954 19.3766 13.9544 19.3728C13.6258 19.3864 13.298 19.331 12.9921 19.2101C12.6863 19.0893 12.4091 18.9057 12.1785 18.6713C11.6941 18.1118 11.4505 17.3835 11.5008 16.6453L11.5017 16.6479ZM12.4091 16.6479C12.368 17.1858 12.5251 17.72 12.8509 18.15C12.9868 18.3103 13.1568 18.4383 13.3485 18.5247C13.5401 18.6111 13.7487 18.6536 13.9588 18.6492C14.1681 18.653 14.3755 18.61 14.566 18.5233C14.7565 18.4367 14.9252 18.3085 15.0598 18.1482C15.3862 17.7088 15.5431 17.1663 15.5015 16.6205C15.5394 16.0945 15.3821 15.573 15.0598 15.1556C14.9253 14.9962 14.7571 14.8688 14.5673 14.7824C14.3775 14.6961 14.1709 14.653 13.9624 14.6564C13.7525 14.6515 13.5441 14.6935 13.3525 14.7793C13.1608 14.865 12.9907 14.9923 12.8544 15.152C12.5297 15.5808 12.3726 16.1133 12.4126 16.6497L12.4091 16.6479Z" fill="#192C53"/>
<path d="M17.4214 19.2626V12.0439H18.3049V19.2626H17.4214Z" fill="#192C53"/>
<path d="M23.2511 17.5684L24.1682 17.6894C24.052 18.1818 23.7715 18.62 23.373 18.9317C22.9376 19.2403 22.4121 19.3957 21.8789 19.3735C21.5437 19.39 21.2088 19.3355 20.8961 19.2137C20.5834 19.0919 20.2998 18.9055 20.0641 18.6666C19.5895 18.1212 19.3486 17.4109 19.3934 16.6892C19.3464 15.9461 19.589 15.2137 20.0703 14.6456C20.2942 14.4052 20.5672 14.2158 20.8707 14.0902C21.1742 13.9646 21.5012 13.9057 21.8294 13.9175C22.1487 13.9068 22.4666 13.965 22.7614 14.088C23.0563 14.2111 23.3212 14.3961 23.5382 14.6305C24.0094 15.1887 24.2471 15.9072 24.2018 16.6362C24.2018 16.6892 24.2018 16.767 24.1965 16.8713H20.3009C20.2994 17.3547 20.4722 17.8224 20.7877 18.1886C20.9271 18.3373 21.0962 18.4548 21.2841 18.5337C21.472 18.6125 21.6743 18.6509 21.878 18.6463C22.1757 18.6546 22.4677 18.5642 22.7086 18.3892C22.9674 18.1745 23.1573 17.8884 23.2546 17.5666L23.2511 17.5684ZM20.3477 16.1476H23.2635C23.2544 15.7916 23.138 15.4467 22.9295 15.158C22.7991 14.9935 22.6322 14.8615 22.4421 14.7726C22.2519 14.6837 22.0437 14.6402 21.8339 14.6456C21.6443 14.6411 21.4559 14.675 21.2798 14.7451C21.1036 14.8153 20.9435 14.9202 20.8089 15.0538C20.5241 15.3478 20.3607 15.7384 20.3512 16.1476H20.3477Z" fill="#192C53"/>
<path d="M27.2184 18.4723L27.3394 19.2552C27.1206 19.3042 26.8974 19.3306 26.6732 19.3338C26.4148 19.348 26.157 19.2954 25.9248 19.181C25.7598 19.0917 25.6285 18.9508 25.5511 18.7798C25.4576 18.4386 25.4212 18.0842 25.4433 17.731V14.7163H24.7886V14.0316H25.4433V12.7371L26.3269 12.207V14.0342H27.2104V14.719H26.3269V17.7841C26.3158 17.9487 26.3319 18.1141 26.3746 18.2736C26.4044 18.3476 26.4579 18.4097 26.5265 18.4503C26.6199 18.4979 26.7241 18.5198 26.8287 18.5139C26.9581 18.5111 27.0871 18.4992 27.2148 18.4785L27.2184 18.4723Z" fill="#192C53"/>
<path d="M27.7565 16.6479C27.7242 16.2525 27.7799 15.8549 27.9197 15.4836C28.0595 15.1124 28.2799 14.7767 28.565 14.5008C29.0228 14.1108 29.6089 13.904 30.2101 13.9203C30.537 13.9091 30.8626 13.9661 31.1661 14.0878C31.4696 14.2095 31.7444 14.3932 31.9728 14.6272C32.2095 14.89 32.3918 15.1971 32.5092 15.5307C32.6265 15.8644 32.6767 16.2179 32.6567 16.571C32.6829 17.1159 32.5793 17.6591 32.3545 18.1561C32.1568 18.5373 31.849 18.8501 31.471 19.0538C31.0848 19.2667 30.6502 19.3765 30.2093 19.3728C29.8805 19.3864 29.5526 19.3311 29.2465 19.2102C28.9405 19.0894 28.6632 18.9058 28.4324 18.6712C27.9483 18.1116 27.7048 17.3835 27.7547 16.6452L27.7565 16.6479ZM28.6639 16.6479C28.6228 17.1857 28.78 17.72 29.1057 18.1499C29.2415 18.3102 29.4114 18.4382 29.6029 18.5245C29.7944 18.6109 30.0028 18.6534 30.2128 18.6492C30.4219 18.6529 30.6292 18.6099 30.8195 18.5232C31.0099 18.4365 31.1784 18.3084 31.3128 18.1482C31.6393 17.7088 31.7961 17.1663 31.7546 16.6205C31.7922 16.0945 31.6349 15.5731 31.3128 15.1556C31.178 14.9966 31.0097 14.8694 30.82 14.7831C30.6303 14.6968 30.4238 14.6535 30.2154 14.6564C30.0055 14.6515 29.7972 14.6935 29.6056 14.7792C29.4139 14.865 29.2437 14.9923 29.1074 15.152C28.7828 15.5808 28.6257 16.1133 28.6657 16.6497L28.6639 16.6479Z" fill="#192C53"/>
</svg>
