<svg width="60" height="60" viewBox="0 0 60 60" fill="none" xmlns="http://www.w3.org/2000/svg">
<path d="M30 59C46.0163 59 59 46.0163 59 30C59 13.9837 46.0163 1 30 1C13.9837 1 1 13.9837 1 30C1 46.0163 13.9837 59 30 59Z" stroke="white" stroke-width="2"/>
<path d="M43.7479 25.334L35.2629 16.848C34.6912 16.303 33.9317 15.999 33.1419 15.999C32.3521 15.999 31.5926 16.303 31.0209 16.848L16.8779 30.991C16.5993 31.2696 16.3782 31.6003 16.2274 31.9643C16.0766 32.3283 15.999 32.7185 15.999 33.1125C15.999 33.5065 16.0766 33.8966 16.2274 34.2606C16.3782 34.6247 16.5993 34.9554 16.8779 35.234L25.3629 43.72C25.6412 43.9987 25.9718 44.2197 26.3358 44.3703C26.6998 44.5208 27.09 44.5978 27.4839 44.597C27.8781 44.5981 28.2685 44.5211 28.6328 44.3704C28.997 44.2197 29.3277 43.9983 29.6059 43.719L43.7479 29.577C44.0265 29.2984 44.2475 28.9677 44.3983 28.6036C44.5491 28.2396 44.6267 27.8495 44.6267 27.4555C44.6267 27.0615 44.5491 26.6713 44.3983 26.3073C44.2475 25.9433 44.0265 25.6126 43.7479 25.334V25.334ZM18.2919 32.405L32.4349 18.263C32.5274 18.1698 32.6376 18.096 32.759 18.0459C32.8804 17.9957 33.0106 17.9703 33.1419 17.971C33.4069 17.9708 33.6612 18.0758 33.8489 18.263L38.5779 22.993L23.0219 38.549L18.2919 33.82C18.1989 33.7271 18.1251 33.6168 18.0748 33.4954C18.0245 33.374 17.9986 33.2439 17.9986 33.1125C17.9986 32.9811 18.0245 32.8509 18.0748 32.7295C18.1251 32.6081 18.1989 32.4979 18.2919 32.405ZM42.3339 28.163L28.1909 42.3C28.0003 42.4816 27.7471 42.5828 27.4839 42.5828C27.2206 42.5828 26.9675 42.4816 26.7769 42.3L25.5219 41.044L41.0779 25.493L42.3339 26.748C42.4269 26.8409 42.5006 26.9511 42.5509 27.0725C42.6013 27.1939 42.6272 27.3241 42.6272 27.4555C42.6272 27.5869 42.6013 27.717 42.5509 27.8384C42.5006 27.9598 42.4269 28.0701 42.3339 28.163V28.163Z" fill="white"/>
<path d="M27.4408 29.5178C27.6283 29.3303 27.7336 29.076 27.7336 28.8108C27.7336 28.5457 27.6283 28.2914 27.4408 28.1038C27.348 28.0109 27.2377 27.9371 27.1163 27.8868C26.9949 27.8364 26.8647 27.8105 26.7333 27.8105C26.6019 27.8105 26.4718 27.8364 26.3504 27.8868C26.229 27.9371 26.1187 28.0109 26.0258 28.1038L21.1658 32.9648C20.9784 33.1524 20.873 33.4067 20.873 33.6718C20.873 33.937 20.9784 34.1913 21.1658 34.3788C21.3533 34.5664 21.6076 34.6718 21.8728 34.6718C22.138 34.6718 22.3923 34.5664 22.5798 34.3788L27.4408 29.5178Z" fill="white"/>
</svg>
