<svg width="39" height="25" viewBox="0 0 39 25" fill="none" xmlns="http://www.w3.org/2000/svg">
<path d="M36.2878 0H2.71244C1.73648 0 0.945312 0.791168 0.945312 1.76712V22.9726C0.945312 23.9486 1.73648 24.7397 2.71244 24.7397H36.2878C37.2637 24.7397 38.0549 23.9486 38.0549 22.9726V1.76712C38.0549 0.791168 37.2637 0 36.2878 0Z" fill="white"/>
<path d="M9.98613 16.577C11.1457 16.5865 12.264 16.1467 13.1064 15.3498C13.9488 14.5528 14.4499 13.4607 14.5047 12.3023C14.497 11.719 14.3737 11.143 14.1418 10.6077C13.9099 10.0724 13.5741 9.58837 13.1538 9.18378C12.7335 8.77919 12.2371 8.46206 11.6934 8.25071C11.1496 8.03936 10.5693 7.938 9.98613 7.95254H7.95394C7.37866 7.93904 6.80664 8.04228 6.27235 8.256C5.73807 8.46971 5.25262 8.78949 4.84535 9.19602C4.43808 9.60255 4.11743 10.0874 3.90274 10.6213C3.68805 11.1552 3.58376 11.727 3.59621 12.3023C3.61066 13.446 4.07709 14.5374 4.89357 15.3384C5.71005 16.1393 6.81024 16.5846 7.95394 16.577H9.98613Z" fill="#006095"/>
<path d="M8.86131 14.5935V9.92208C9.3344 10.1029 9.74158 10.4228 10.0291 10.8397C10.3167 11.2566 10.4711 11.7509 10.472 12.2573C10.471 12.7638 10.3165 13.258 10.029 13.6748C9.74143 14.0917 9.33433 14.4117 8.86131 14.5926V14.5935ZM5.45693 12.2573C5.45797 11.7512 5.61227 11.2572 5.89946 10.8403C6.18665 10.4235 6.59326 10.1034 7.06588 9.92208V14.5917C6.59333 14.4106 6.18671 14.0906 5.89952 13.674C5.61232 13.2573 5.45802 12.7634 5.45693 12.2573V12.2573ZM7.96362 8.30957C6.91575 8.30887 5.91046 8.72437 5.16884 9.46466C4.42722 10.205 4.00996 11.2095 4.00879 12.2573C4.00996 13.3052 4.42722 14.3097 5.16884 15.05C5.91046 15.7903 6.91575 16.2058 7.96362 16.2051C9.01165 16.206 10.0171 15.7907 10.7589 15.0503C11.5008 14.31 11.9181 13.3054 11.9193 12.2573C11.9181 11.2093 11.5008 10.2047 10.7589 9.46434C10.0171 8.72402 9.01165 8.30863 7.96362 8.30957" fill="white"/>
<path d="M15.8908 9.80939C15.8908 9.40118 15.6778 9.4286 15.4729 9.42418V9.30664C15.6496 9.31548 15.8316 9.31549 16.0092 9.31549C16.1868 9.31549 16.4589 9.30664 16.7955 9.30664C17.0208 9.28414 17.2483 9.30813 17.464 9.37713C17.6796 9.44612 17.8788 9.55867 18.0491 9.70776C18.2195 9.85685 18.3575 10.0393 18.4545 10.2439C18.5515 10.4485 18.6054 10.6708 18.613 10.8971C18.613 11.3459 18.348 12.4751 16.7408 12.4751C16.5093 12.4751 16.299 12.4663 16.0816 12.4663C15.8643 12.4663 15.677 12.4663 15.4729 12.4751V12.3567C15.745 12.3293 15.8775 12.3205 15.8908 12.0121V9.80939ZM16.3326 11.937C16.3326 12.2904 16.5826 12.3267 16.8053 12.3267C16.988 12.3337 17.17 12.301 17.3389 12.2309C17.5077 12.1608 17.6593 12.0549 17.7833 11.9205C17.9073 11.7862 18.0006 11.6265 18.0569 11.4525C18.1132 11.2786 18.1311 11.0945 18.1094 10.913C18.1232 10.7209 18.0961 10.528 18.0301 10.3471C17.964 10.1662 17.8603 10.0014 17.726 9.8634C17.5916 9.72543 17.4295 9.61748 17.2504 9.54665C17.0713 9.47582 16.8793 9.44371 16.6869 9.45244C16.5004 9.45244 16.4147 9.46569 16.3334 9.47099L16.3326 11.937ZM18.7685 12.354H18.8569C18.9841 12.354 19.0751 12.3541 19.0751 12.2039V10.9748C19.0751 10.7751 19.0071 10.7477 18.8383 10.6576V10.5852C19.0522 10.5216 19.3066 10.4359 19.3243 10.4217C19.3491 10.4068 19.3775 10.3989 19.4065 10.3987C19.4286 10.3987 19.4383 10.4261 19.4383 10.4624V12.2039C19.4383 12.3541 19.5381 12.354 19.6653 12.354H19.7422V12.4724C19.5876 12.4724 19.4286 12.4636 19.2651 12.4636C19.1016 12.4636 18.9373 12.468 18.7694 12.4724L18.7685 12.354ZM19.2545 9.70336C19.1955 9.7007 19.1398 9.6758 19.0985 9.63366C19.0571 9.59153 19.0333 9.53529 19.0318 9.4763C19.0353 9.41879 19.06 9.36463 19.1011 9.3243C19.1423 9.28398 19.1969 9.26036 19.2545 9.25805C19.3128 9.25804 19.3687 9.28091 19.4104 9.32171C19.452 9.36252 19.476 9.41802 19.4771 9.4763C19.4765 9.53456 19.4535 9.59035 19.4129 9.63213C19.3723 9.6739 19.3171 9.69846 19.2589 9.70072L19.2545 9.70336ZM20.1725 11.0049C20.1725 10.837 20.1221 10.7919 19.9074 10.7053V10.617C20.1111 10.5546 20.3113 10.4818 20.5074 10.3987C20.5206 10.3987 20.5339 10.4076 20.5339 10.4438V10.7389C20.7517 10.542 21.0284 10.4224 21.3211 10.3987C21.7073 10.3987 21.8433 10.6797 21.8433 11.034V12.2039C21.8433 12.3541 21.9432 12.354 22.0704 12.354H22.1526V12.4724C21.9935 12.4724 21.8345 12.4636 21.671 12.4636C21.5076 12.4636 21.3432 12.468 21.1798 12.4724V12.354H21.2611C21.3883 12.354 21.4793 12.3541 21.4793 12.2039V11.0296C21.4793 10.7707 21.3211 10.6444 21.0614 10.6444C20.8699 10.6735 20.6881 10.748 20.5312 10.8617V12.2039C20.5312 12.3541 20.632 12.354 20.7592 12.354H20.8405V12.4724C20.6814 12.4724 20.5224 12.4636 20.3589 12.4636C20.1955 12.4636 20.0311 12.468 19.8686 12.4724V12.354H19.9507C20.078 12.354 20.1681 12.3541 20.1681 12.2039L20.1725 11.0049ZM22.4998 11.2231C22.4892 11.3111 22.4892 11.4001 22.4998 11.4882C22.4918 11.6791 22.5561 11.8659 22.68 12.0114C22.8038 12.1569 22.9781 12.2502 23.1678 12.2728C23.2854 12.2662 23.4004 12.2359 23.5059 12.1836C23.6114 12.1314 23.7053 12.0583 23.7819 11.9688L23.8455 12.0324C23.7569 12.1791 23.6343 12.3022 23.488 12.3914C23.3417 12.4806 23.1761 12.5333 23.0052 12.5449C22.8824 12.5396 22.7618 12.5095 22.6509 12.4565C22.54 12.4034 22.441 12.3284 22.3598 12.236C22.2787 12.1436 22.2171 12.0358 22.1787 11.9189C22.1404 11.8021 22.1261 11.6787 22.1367 11.5562C22.1367 10.6673 22.7366 10.4076 23.0538 10.4076C23.1516 10.4012 23.2497 10.4148 23.342 10.4477C23.4344 10.4805 23.5191 10.5318 23.591 10.5984C23.6628 10.6651 23.7203 10.7457 23.76 10.8353C23.7997 10.9249 23.8206 11.0217 23.8216 11.1197C23.8236 11.1471 23.8236 11.1745 23.8216 11.2019L23.7801 11.2293L22.4998 11.2231ZM23.3038 11.0782C23.4178 11.0782 23.4302 11.019 23.4302 10.9651C23.4348 10.911 23.428 10.8566 23.4101 10.8054C23.3922 10.7542 23.3636 10.7073 23.3263 10.6679C23.289 10.6285 23.2438 10.5975 23.1936 10.5768C23.1434 10.5562 23.0895 10.5463 23.0352 10.548C22.7578 10.548 22.567 10.7513 22.5131 11.0782H23.3038ZM23.9223 12.3576H24.0452C24.1715 12.3576 24.2625 12.3576 24.2625 12.2074V10.9333C24.2625 10.7928 24.0946 10.7654 24.0266 10.7292V10.6612C24.3579 10.5207 24.54 10.4023 24.5815 10.4023C24.608 10.4023 24.6221 10.4155 24.6221 10.4615V10.8697H24.6319C24.7449 10.693 24.9367 10.4023 25.2132 10.4023C25.2461 10.4007 25.2789 10.4058 25.3098 10.4171C25.3407 10.4284 25.369 10.4457 25.3931 10.4681C25.4172 10.4905 25.4366 10.5174 25.4502 10.5474C25.4637 10.5774 25.4712 10.6097 25.4721 10.6426C25.4737 10.6719 25.4693 10.7011 25.4594 10.7287C25.4495 10.7563 25.4342 10.7816 25.4143 10.8031C25.3945 10.8247 25.3706 10.8421 25.3439 10.8543C25.3173 10.8665 25.2885 10.8732 25.2592 10.8741C25.1178 10.8741 25.1178 10.7645 24.9588 10.7645C24.8675 10.7771 24.7839 10.8219 24.723 10.8911C24.6622 10.9602 24.6283 11.0489 24.6274 11.1409V12.2065C24.6274 12.3567 24.7158 12.3567 24.8457 12.3567H25.1001V12.4751C24.8501 12.4707 24.6584 12.4663 24.464 12.4663C24.2696 12.4663 24.0867 12.4707 23.9232 12.4751L23.9223 12.3576ZM25.6718 11.8451C25.6827 11.9915 25.7471 12.1288 25.8527 12.2307C25.9583 12.3327 26.0977 12.3924 26.2443 12.3982C26.2903 12.405 26.3372 12.4018 26.3817 12.3886C26.4263 12.3755 26.4675 12.3529 26.5024 12.3223C26.5374 12.2917 26.5653 12.2539 26.5842 12.2115C26.6031 12.1691 26.6125 12.1231 26.6119 12.0766C26.6119 11.5412 25.6214 11.7135 25.6214 10.9837C25.6267 10.898 25.6496 10.8143 25.6887 10.7379C25.7277 10.6615 25.7822 10.594 25.8485 10.5395C25.9148 10.485 25.9916 10.4448 26.0742 10.4214C26.1567 10.3979 26.2432 10.3917 26.3283 10.4032C26.5086 10.4074 26.6856 10.4524 26.846 10.5348L26.8779 10.9969H26.7736C26.7715 10.9346 26.7569 10.8733 26.7306 10.8167C26.7044 10.7601 26.667 10.7094 26.6208 10.6675C26.5745 10.6257 26.5204 10.5935 26.4615 10.573C26.4026 10.5525 26.3401 10.544 26.2779 10.548C26.2348 10.5433 26.1912 10.5474 26.1497 10.5601C26.1083 10.5727 26.0698 10.5937 26.0368 10.6218C26.0037 10.6498 25.9767 10.6843 25.9574 10.7231C25.9381 10.7619 25.9269 10.8043 25.9245 10.8476C25.9245 11.3777 26.9786 11.2151 26.9786 11.9273C26.9786 12.2268 26.7374 12.5458 26.1966 12.5458C26.0022 12.54 25.812 12.4869 25.6426 12.3912L25.5923 11.8699L25.6718 11.8451ZM31.0801 10.1301H30.967C30.9522 10.0174 30.9153 9.90867 30.8584 9.81022C30.8015 9.71177 30.7257 9.62552 30.6354 9.55641C30.5452 9.4873 30.4421 9.4367 30.3322 9.40749C30.2223 9.37827 30.1077 9.37103 29.9951 9.38619C29.8134 9.38681 29.6338 9.42567 29.4682 9.50024C29.3025 9.57482 29.1544 9.68344 29.0335 9.81904C28.9125 9.95464 28.8215 10.1142 28.7663 10.2873C28.7111 10.4604 28.6929 10.6432 28.713 10.8237C28.6866 11.2115 28.814 11.5941 29.0674 11.8887C29.3209 12.1834 29.6801 12.3664 30.0675 12.3982C30.2885 12.3984 30.5022 12.3194 30.6698 12.1754C30.8375 12.0314 30.9479 11.8321 30.9811 11.6136L31.0854 11.641L30.9811 12.3037C30.6661 12.4515 30.3243 12.5332 29.9765 12.544C29.7467 12.5614 29.5159 12.5295 29.2995 12.4504C29.0831 12.3712 28.8861 12.2467 28.7218 12.0852C28.5575 11.9237 28.4296 11.729 28.3467 11.514C28.2638 11.299 28.2278 11.0688 28.2412 10.8387C28.26 10.3994 28.4515 9.98533 28.774 9.68638C29.0964 9.38742 29.5238 9.22777 29.9633 9.24214C30.3318 9.26167 30.6944 9.34323 31.0359 9.48336L31.0801 10.1301ZM31.2435 12.3576H31.3319C31.4591 12.3576 31.5501 12.3576 31.5501 12.2074V9.68128C31.5501 9.38617 31.4821 9.37734 31.3089 9.32786V9.25541C31.4704 9.20417 31.6271 9.13882 31.7772 9.06013C31.8084 9.03952 31.8419 9.02261 31.877 9.00977C31.9044 9.00977 31.9142 9.03718 31.9142 9.0734V12.2074C31.9142 12.3576 32.014 12.3576 32.1412 12.3576H32.2181V12.476C32.0644 12.476 31.9053 12.4672 31.741 12.4672C31.5766 12.4672 31.4141 12.4716 31.2453 12.476L31.2435 12.3576ZM34.1593 12.2259C34.1593 12.3081 34.2088 12.3143 34.2865 12.3143C34.3413 12.3143 34.4093 12.3143 34.4685 12.3143V12.4097C34.2472 12.4407 34.0284 12.4876 33.8138 12.5502L33.7908 12.5361V12.1685C33.5797 12.3918 33.2925 12.5277 32.9859 12.5493C32.9164 12.5511 32.8472 12.538 32.7831 12.5109C32.719 12.4838 32.6614 12.4434 32.6142 12.3923C32.5669 12.3412 32.5311 12.2807 32.5092 12.2146C32.4872 12.1486 32.4795 12.0787 32.4867 12.0095V10.8485C32.4867 10.7301 32.469 10.617 32.2146 10.5949V10.5065C32.378 10.5021 32.7447 10.4747 32.8004 10.4747C32.856 10.4747 32.8507 10.5065 32.8507 10.6064V11.7762C32.8507 11.9123 32.8507 12.3064 33.2457 12.3064C33.4531 12.2733 33.6451 12.1766 33.7953 12.0298V10.8096C33.7953 10.7212 33.577 10.6691 33.4136 10.6241V10.5428C33.8218 10.5154 34.0771 10.4792 34.1204 10.4792C34.1637 10.4792 34.1575 10.5109 34.1575 10.5613L34.1593 12.2259ZM35.0632 10.7292C35.2457 10.5474 35.4841 10.4323 35.74 10.4023C35.8587 10.4071 35.9753 10.4359 36.0827 10.4869C36.19 10.5378 36.286 10.6099 36.3649 10.6989C36.4438 10.7878 36.5039 10.8917 36.5417 11.0044C36.5794 11.1171 36.594 11.2363 36.5847 11.3548C36.5955 11.6558 36.4877 11.949 36.2844 12.1713C36.0811 12.3936 35.7987 12.5271 35.4979 12.5431C35.2775 12.5428 35.0605 12.4881 34.8661 12.3841L34.7301 12.4884L34.6346 12.4389C34.6762 12.1717 34.6975 11.9017 34.6983 11.6313V9.68128C34.6983 9.38617 34.6302 9.37734 34.4571 9.32786V9.25541C34.6186 9.20421 34.7753 9.13886 34.9253 9.06013C34.9565 9.03942 34.99 9.02251 35.0252 9.00977C35.0526 9.00977 35.0614 9.03718 35.0614 9.0734L35.0632 10.7292ZM35.0632 11.9662C35.0695 12.0878 35.121 12.2028 35.2076 12.2884C35.2942 12.3741 35.4097 12.4243 35.5315 12.4292C36.0183 12.4292 36.2224 11.9529 36.2224 11.5456C36.2331 11.3327 36.1649 11.1232 36.0307 10.9575C35.8964 10.7919 35.7058 10.6816 35.4952 10.6479C35.3306 10.6656 35.1775 10.741 35.0632 10.8608V11.9662ZM15.4561 15.1161H15.4905C15.5789 15.1161 15.6734 15.1037 15.6734 14.9756V13.6829C15.6734 13.5539 15.5798 13.5416 15.4905 13.5416H15.4561V13.4673C15.5524 13.4673 15.7008 13.4771 15.8227 13.4771C15.9447 13.4771 16.0949 13.4673 16.2106 13.4673V13.5416H16.1762C16.0878 13.5416 15.9933 13.5539 15.9933 13.6829V14.9756C15.9933 15.1037 16.0878 15.1161 16.1762 15.1161H16.2106V15.1903C16.0922 15.1903 15.9455 15.1806 15.8201 15.1806C15.6946 15.1806 15.555 15.1903 15.4561 15.1903V15.1161ZM17.9097 14.7043L17.915 14.6999V13.7748C17.9193 13.7447 17.9168 13.7141 17.9077 13.6851C17.8986 13.6562 17.8832 13.6296 17.8626 13.6073C17.8419 13.585 17.8165 13.5677 17.7883 13.5564C17.7601 13.5452 17.7297 13.5404 17.6994 13.5424H17.6446V13.4682C17.7613 13.4682 17.8744 13.4779 17.991 13.4779C18.0926 13.4779 18.1942 13.4682 18.2949 13.4682V13.5424H18.2578C18.1536 13.5424 18.0378 13.5628 18.0378 13.8561V14.9791C18.0365 15.0624 18.0415 15.1457 18.0528 15.2283H17.9592L16.686 13.8146V14.8316C16.686 15.0463 16.7275 15.1205 16.9183 15.1205H16.9599V15.1947C16.8538 15.1947 16.7478 15.185 16.6409 15.185C16.534 15.185 16.4165 15.1947 16.3052 15.1947V15.1205H16.3396C16.5101 15.1205 16.5623 15.0047 16.5623 14.8077V13.7678C16.5623 13.7384 16.5564 13.7094 16.5451 13.6823C16.5338 13.6552 16.5173 13.6306 16.4964 13.61C16.4755 13.5894 16.4507 13.5731 16.4235 13.5621C16.3963 13.5511 16.3672 13.5456 16.3378 13.546H16.306V13.4718C16.3997 13.4718 16.496 13.4815 16.5897 13.4815C16.6639 13.4815 16.7355 13.4718 16.8097 13.4718L17.9097 14.7043ZM18.666 13.591C18.4805 13.591 18.4734 13.6352 18.4363 13.8155H18.3621C18.3718 13.7466 18.3842 13.6776 18.3921 13.6061C18.4022 13.5367 18.4072 13.4667 18.4071 13.3967H18.4664C18.4867 13.4709 18.5485 13.4682 18.6148 13.4682H19.8907C19.9578 13.4682 20.0188 13.4682 20.0241 13.3914L20.0833 13.4011C20.0735 13.4682 20.0638 13.5345 20.0559 13.6008C20.0479 13.667 20.0514 13.7342 20.0514 13.8005L19.9772 13.8278C19.9719 13.7395 19.9596 13.591 19.7943 13.591H19.3888V14.904C19.3888 15.094 19.4772 15.1161 19.5938 15.1161H19.6406V15.1903C19.5443 15.1903 19.3711 15.1806 19.2377 15.1806C19.0893 15.1806 18.9161 15.1903 18.8198 15.1903V15.1161H18.8666C19.0027 15.1161 19.0716 15.1037 19.0716 14.9093V13.591H18.666ZM20.1619 15.1161H20.1964C20.2847 15.1161 20.3793 15.1037 20.3793 14.9756V13.6829C20.3793 13.5539 20.2856 13.5416 20.1964 13.5416H20.1619V13.4673C20.3121 13.4673 20.5701 13.4771 20.7804 13.4771C20.9907 13.4771 21.2452 13.4673 21.413 13.4673C21.413 13.5734 21.413 13.7324 21.4183 13.8446L21.3441 13.8641C21.3317 13.7041 21.3026 13.5751 21.0428 13.5751H20.6991V14.2219H20.9933C21.1418 14.2219 21.1701 14.138 21.1886 14.0046H21.2628C21.2581 14.1012 21.2557 14.1975 21.2557 14.2935C21.2557 14.388 21.2557 14.4808 21.2628 14.5753L21.1886 14.5903C21.1736 14.4428 21.1665 14.3465 20.9951 14.3465H20.6991V14.9217C20.6991 15.0825 20.8422 15.0825 21.0004 15.0825C21.2973 15.0825 21.428 15.0622 21.5023 14.7812L21.5712 14.798C21.5385 14.9288 21.5093 15.0631 21.4872 15.1903C21.3291 15.1903 21.0455 15.1806 20.8219 15.1806C20.5984 15.1806 20.305 15.1903 20.1637 15.1903L20.1619 15.1161ZM21.9025 13.7289C21.9025 13.5522 21.8036 13.5416 21.7258 13.5416H21.6816V13.4673C21.7611 13.4673 21.914 13.4771 22.0651 13.4771C22.2162 13.4771 22.3302 13.4673 22.4627 13.4673C22.7737 13.4673 23.0512 13.5513 23.0512 13.9021C23.0479 14.0017 23.0127 14.0978 22.9509 14.176C22.889 14.2542 22.8037 14.3106 22.7074 14.3368L23.1298 14.9685C23.1526 15.0128 23.187 15.05 23.2293 15.0761C23.2717 15.1023 23.3204 15.1164 23.3701 15.117V15.1912C23.2879 15.1912 23.2093 15.1815 23.128 15.1815C23.0467 15.1815 22.9716 15.1912 22.8957 15.1912C22.7059 14.9368 22.5341 14.6697 22.3814 14.3915H22.2188V14.9217C22.2188 15.1117 22.3072 15.1187 22.4212 15.1187H22.4662V15.1929C22.3249 15.1929 22.1817 15.1832 22.0412 15.1832C21.922 15.1832 21.8062 15.1929 21.6825 15.1929V15.1187H21.7267C21.8151 15.1187 21.9034 15.0772 21.9034 14.9862L21.9025 13.7289ZM22.2188 14.3014H22.3399C22.5873 14.3014 22.7207 14.2078 22.7207 13.9162C22.724 13.868 22.7169 13.8196 22.6999 13.7744C22.6828 13.7291 22.6563 13.6881 22.6221 13.654C22.5878 13.6199 22.5466 13.5935 22.5013 13.5767C22.4559 13.5599 22.4075 13.5531 22.3593 13.5566C22.3123 13.5573 22.2654 13.5605 22.2188 13.5663V14.3014ZM25.0462 14.7043L25.0507 14.6999V13.7748C25.0549 13.7448 25.0524 13.7143 25.0434 13.6854C25.0344 13.6564 25.019 13.6299 24.9985 13.6076C24.9779 13.5854 24.9527 13.568 24.9246 13.5567C24.8965 13.5455 24.8662 13.5406 24.8359 13.5424H24.782V13.4682C24.8978 13.4682 25.0118 13.4779 25.1284 13.4779C25.23 13.4779 25.3307 13.4682 25.4332 13.4682V13.5424H25.3961C25.2927 13.5424 25.1761 13.5628 25.1761 13.8561V14.9791C25.1744 15.0624 25.1791 15.1457 25.1903 15.2283H25.0966L23.8234 13.8146V14.8316C23.8234 15.0463 23.8649 15.1205 24.0558 15.1205H24.0973V15.1947C23.9913 15.1947 23.8844 15.185 23.7783 15.185C23.6723 15.185 23.553 15.1947 23.4417 15.1947V15.1205H23.4761C23.6467 15.1205 23.6988 15.0047 23.6988 14.8077V13.7678C23.6988 13.7383 23.6929 13.7092 23.6816 13.6821C23.6702 13.6549 23.6536 13.6303 23.6326 13.6097C23.6116 13.589 23.5868 13.5728 23.5595 13.5618C23.5321 13.5509 23.5029 13.5455 23.4735 13.546H23.4417V13.4718C23.5353 13.4718 23.6325 13.4815 23.7262 13.4815C23.7995 13.4815 23.872 13.4718 23.9462 13.4718L25.0462 14.7043ZM25.8299 14.8377C25.8052 14.8999 25.7868 14.9645 25.7752 15.0304C25.7752 15.1046 25.8794 15.1187 25.9607 15.1187H25.9881V15.1929C25.8892 15.1876 25.7884 15.1832 25.6886 15.1832C25.5887 15.1832 25.5119 15.1832 25.4235 15.1929V15.1187H25.4385C25.4869 15.1187 25.534 15.1031 25.5727 15.0741C25.6114 15.0451 25.6397 15.0043 25.6533 14.9579L26.0491 13.8252C26.0863 13.7254 26.1158 13.6229 26.1374 13.5186C26.2155 13.4907 26.2907 13.4552 26.3618 13.4126C26.3679 13.4096 26.3745 13.4078 26.3813 13.4073C26.3847 13.4066 26.3882 13.407 26.3914 13.4084C26.3946 13.4099 26.3972 13.4122 26.399 13.4152C26.406 13.4347 26.4131 13.4567 26.4211 13.4771L26.8761 14.7679C26.9061 14.8563 26.9353 14.9447 26.9644 15.0198C26.9772 15.0517 27.0001 15.0787 27.0296 15.0964C27.0591 15.1141 27.0937 15.1217 27.1279 15.1178H27.1429V15.1921C27.0316 15.1868 26.9203 15.1823 26.8019 15.1823C26.6835 15.1823 26.5571 15.1823 26.4308 15.1921V15.1178H26.4582C26.5147 15.1178 26.6119 15.1081 26.6119 15.0463C26.6021 14.9856 26.5852 14.9263 26.5615 14.8696L26.4652 14.5833H25.9042L25.8299 14.8377ZM26.1904 13.7439H26.1851L25.9554 14.4428H26.4175L26.1904 13.7439ZM27.256 13.591C27.0705 13.591 27.0634 13.6352 27.0263 13.8155H26.9521C26.9618 13.7466 26.9742 13.6776 26.9821 13.6061C26.9918 13.5367 26.9965 13.4667 26.9963 13.3967H27.0554C27.0749 13.4709 27.1376 13.4682 27.2039 13.4682H28.4797C28.546 13.4682 28.6079 13.4682 28.6132 13.3914L28.6724 13.4011C28.6627 13.4682 28.6529 13.5345 28.6459 13.6008C28.6388 13.667 28.6406 13.7342 28.6406 13.8005L28.5664 13.8278C28.5619 13.7395 28.5496 13.591 28.3835 13.591H27.9779V14.904C27.9779 15.094 28.0662 15.1161 28.1829 15.1161H28.2297V15.1903C28.1334 15.1903 27.9646 15.1806 27.8268 15.1806C27.6784 15.1806 27.5052 15.1903 27.4089 15.1903V15.1161H27.4557C27.5918 15.1161 27.6607 15.1037 27.6607 14.9093V13.591H27.256ZM28.7634 15.1161H28.7978C28.8862 15.1161 28.9807 15.1037 28.9807 14.9756V13.6829C28.9807 13.5539 28.8871 13.5416 28.7978 13.5416H28.7634V13.4673C28.8597 13.4673 29.0081 13.4771 29.1292 13.4771C29.2502 13.4771 29.4013 13.4673 29.5179 13.4673V13.5416H29.4835C29.3951 13.5416 29.2997 13.5539 29.2997 13.6829V14.9756C29.2997 15.1037 29.3942 15.1161 29.4835 15.1161H29.5179V15.1903C29.3987 15.1903 29.2529 15.1806 29.1274 15.1806C29.0019 15.1806 28.8623 15.1903 28.7634 15.1903V15.1161ZM30.504 13.4311C30.6231 13.42 30.7433 13.4337 30.8569 13.4713C30.9705 13.5089 31.0751 13.5696 31.1641 13.6497C31.253 13.7297 31.3245 13.8272 31.3739 13.9362C31.4233 14.0452 31.4496 14.1632 31.4512 14.2829C31.4567 14.4076 31.4364 14.5321 31.3916 14.6486C31.3467 14.7652 31.2782 14.8711 31.1904 14.9599C31.1026 15.0487 30.9974 15.1184 30.8814 15.1646C30.7654 15.2107 30.6412 15.2324 30.5164 15.2283C30.3965 15.2355 30.2765 15.2178 30.1637 15.1765C30.051 15.1352 29.948 15.0711 29.8612 14.9882C29.7744 14.9053 29.7056 14.8053 29.6592 14.6946C29.6127 14.5839 29.5896 14.4648 29.5913 14.3447C29.5879 14.2222 29.6097 14.1002 29.6553 13.9864C29.7009 13.8726 29.7693 13.7693 29.8563 13.6828C29.9433 13.5964 30.047 13.5287 30.1611 13.4839C30.2753 13.4391 30.3974 13.4181 30.5199 13.4223L30.504 13.4311ZM30.5411 15.1196C31.0209 15.1196 31.1048 14.6973 31.1048 14.3376C31.1048 13.978 30.9104 13.5424 30.4996 13.5424C30.0666 13.5424 29.9385 13.9277 29.9385 14.2581C29.9535 14.6893 30.1568 15.1116 30.557 15.1116L30.5411 15.1196ZM33.1176 14.7043L33.1229 14.6999V13.7748C33.1271 13.7447 33.1247 13.7141 33.1156 13.6851C33.1065 13.6562 33.0911 13.6296 33.0704 13.6073C33.0498 13.585 33.0244 13.5677 32.9962 13.5564C32.968 13.5452 32.9376 13.5404 32.9073 13.5424H32.8534V13.4682C32.9691 13.4682 33.0831 13.4779 33.1989 13.4779C33.3005 13.4779 33.4021 13.4682 33.5037 13.4682V13.5424H33.4666C33.3632 13.5424 33.2466 13.5628 33.2466 13.8561V14.9791C33.245 15.0624 33.25 15.1458 33.2616 15.2283H33.1679L31.8938 13.8146V14.8316C31.8938 15.0463 31.9363 15.1205 32.1262 15.1205H32.1686V15.1947C32.0626 15.1947 31.9566 15.185 31.8496 15.185C31.7427 15.185 31.6244 15.1947 31.513 15.1947V15.1205H31.5484C31.7189 15.1205 31.771 15.0047 31.771 14.8077V13.7678C31.7711 13.7383 31.7654 13.7091 31.7541 13.6819C31.7427 13.6547 31.7261 13.6301 31.7051 13.6094C31.6841 13.5887 31.6592 13.5725 31.6318 13.5616C31.6044 13.5507 31.5752 13.5454 31.5457 13.546H31.5139V13.4718C31.6085 13.4718 31.7048 13.4815 31.7984 13.4815C31.8726 13.4815 31.9442 13.4718 32.0184 13.4718L33.1176 14.7043ZM33.9013 14.8377C33.8771 14.9001 33.8591 14.9646 33.8474 15.0304C33.8474 15.1046 33.9516 15.1187 34.0329 15.1187H34.0603V15.1929C33.9614 15.1876 33.8598 15.1832 33.7608 15.1832C33.6619 15.1832 33.5841 15.1832 33.4957 15.1929V15.1187H33.5099C33.5584 15.1189 33.6057 15.1034 33.6446 15.0744C33.6835 15.0453 33.7118 15.0045 33.7255 14.9579L34.1213 13.8252C34.1588 13.7255 34.1884 13.623 34.2097 13.5186C34.2881 13.4907 34.3635 13.4552 34.435 13.4126C34.4411 13.4096 34.4477 13.4078 34.4544 13.4073C34.4615 13.4073 34.4668 13.4073 34.4712 13.4152L34.4942 13.4771L34.9492 14.7679C34.9792 14.8563 35.0084 14.9447 35.0375 15.0198C35.0502 15.0518 35.073 15.0788 35.1026 15.0966C35.1322 15.1143 35.1668 15.1218 35.201 15.1178H35.216V15.1921C35.1047 15.1868 34.9934 15.1823 34.8741 15.1823C34.7548 15.1823 34.6293 15.1823 34.503 15.1921V15.1178H34.5304C34.5869 15.1178 34.6841 15.1081 34.6841 15.0463C34.6742 14.9856 34.6573 14.9263 34.6337 14.8696L34.5375 14.5833H33.9764L33.9013 14.8377ZM34.2627 13.7439H34.2574L34.0268 14.4428H34.4897L34.2627 13.7439ZM35.8425 14.9482C35.8425 15.0471 35.9114 15.0763 35.99 15.0869C36.0989 15.0951 36.2084 15.0933 36.317 15.0816C36.3633 15.0761 36.408 15.0615 36.4487 15.0386C36.4893 15.0157 36.525 14.985 36.5537 14.9482C36.5893 14.8942 36.6154 14.8344 36.6306 14.7715H36.7022C36.6748 14.912 36.6403 15.0507 36.6138 15.1912C36.3965 15.1912 36.1782 15.1815 35.9618 15.1815C35.7453 15.1815 35.5262 15.1912 35.3088 15.1912V15.117H35.3433C35.4316 15.117 35.5297 15.1046 35.5297 14.9517V13.6838C35.5297 13.5548 35.4334 13.5433 35.3433 13.5433H35.3088V13.4691C35.4396 13.4691 35.5686 13.4788 35.6993 13.4788C35.8301 13.4788 35.9494 13.4691 36.0757 13.4691V13.5433H36.0139C35.9202 13.5433 35.846 13.5433 35.846 13.6767L35.8425 14.9482Z" fill="#1A1918"/>
</svg>
