<svg width="38" height="25" viewBox="0 0 38 25" fill="none" xmlns="http://www.w3.org/2000/svg">
<path d="M35.3425 0H1.76712C0.791168 0 0 0.791168 0 1.76712V22.9726C0 23.9486 0.791168 24.7397 1.76712 24.7397H35.3425C36.3184 24.7397 37.1096 23.9486 37.1096 22.9726V1.76712C37.1096 0.791168 36.3184 0 35.3425 0Z" fill="white"/>
<path d="M7.49755 8.81435C7.85582 8.69598 8.23084 8.63629 8.60815 8.63763C9.41552 8.63781 10.198 8.91682 10.8234 9.42752C11.4487 9.93821 11.8785 10.6492 12.0399 11.4403L14.4415 10.9508C14.1672 9.60644 13.4369 8.39811 12.3743 7.53016C11.3117 6.6622 9.98196 6.18791 8.60993 6.1875C7.96846 6.18691 7.33114 6.29016 6.72266 6.49322L7.49755 8.81435Z" fill="#FFCA05"/>
<path d="M4.65972 16.5966L6.28371 14.7606C5.91178 14.4323 5.61402 14.0285 5.41018 13.5762C5.20635 13.1239 5.1011 12.6334 5.1015 12.1373C5.10101 11.6415 5.20612 11.1513 5.4098 10.6993C5.61349 10.2473 5.91112 9.84379 6.28285 9.51573L4.65885 7.67969C4.02709 8.2377 3.52135 8.92378 3.17523 9.69235C2.82911 10.4609 2.65051 11.2944 2.65137 12.1373C2.65048 12.9806 2.82922 13.8145 3.17566 14.5834C3.5221 15.3523 4.02833 16.0386 4.66063 16.5966" fill="#00A3DF"/>
<path d="M12.0348 12.8428C11.8729 13.6332 11.4431 14.3435 10.8179 14.8535C10.1928 15.3635 9.41071 15.642 8.6039 15.6419C8.22626 15.6437 7.8508 15.584 7.49233 15.4652L6.71484 17.7898C7.32394 17.9929 7.96185 18.0961 8.6039 18.0956C9.97502 18.0953 11.304 17.6218 12.3665 16.7551C13.4289 15.8884 14.1597 14.6816 14.4354 13.3385L12.0348 12.8428Z" fill="#EE4023"/>
<path d="M16.5357 14.8376C16.441 14.6833 16.3563 14.5231 16.2821 14.3579C15.9069 13.5113 15.879 12.5512 16.2043 11.6842C16.3619 11.2271 16.6117 10.8071 16.9384 10.4505C17.265 10.0939 17.6615 9.80834 18.1031 9.6114C18.6414 9.38006 19.2274 9.28153 19.8117 9.32412C20.3961 9.36672 20.9616 9.54917 21.4606 9.85613C22.1503 10.2732 22.6794 10.9103 22.9627 11.6648C23.0086 11.7717 23.0511 11.8857 23.0882 11.9828L16.5357 14.8376ZM18.7243 11.0277C18.3549 11.1814 18.0469 11.4533 17.8485 11.8007C17.65 12.1481 17.5724 12.5515 17.6278 12.9477L20.9234 11.5296C20.675 11.1999 20.318 10.9687 19.9155 10.8769C19.5131 10.785 19.0911 10.8385 18.7243 11.0277V11.0277ZM21.3343 14.114L21.2662 14.0681C21.053 14.4022 20.742 14.6626 20.3756 14.8138C20.0739 14.9738 19.7317 15.0409 19.3919 15.0068C19.0522 14.9727 18.7301 14.8388 18.4662 14.622L18.4212 14.691L17.5853 15.9421C17.7933 16.0866 18.016 16.2086 18.2498 16.3061C18.6933 16.4948 19.1714 16.5889 19.6534 16.5822C20.1354 16.5755 20.6107 16.4682 21.0489 16.2672C21.6889 16.0008 22.2336 15.5475 22.6119 14.9666L21.3343 14.114Z" fill="#192C53"/>
<path d="M25.3791 7.76855V14.7222L26.4606 15.164L25.8421 16.5971L24.6483 16.1005C24.4086 15.9962 24.2042 15.8247 24.0599 15.6066C23.9005 15.3481 23.8204 15.0487 23.8293 14.7452V7.77206L25.3791 7.76855Z" fill="#192C53"/>
<path d="M28.1802 12.9509C28.1802 12.6695 28.2405 12.3914 28.3571 12.1353C28.4737 11.8792 28.6439 11.6511 28.8562 11.4664L27.7473 10.2295C27.3614 10.5697 27.0523 10.9881 26.8407 11.4571C26.629 11.926 26.5198 12.4346 26.52 12.9491C26.5189 13.4637 26.6275 13.9727 26.8385 14.4421C27.0495 14.9115 27.3581 15.3306 27.7438 15.6713L28.8518 14.4343C28.6404 14.2493 28.4712 14.0212 28.3553 13.7653C28.2395 13.5094 28.1798 13.2318 28.1802 12.9509V12.9509Z" fill="#192C53"/>
<path d="M30.1504 14.9253C29.9381 14.9248 29.7273 14.8905 29.5257 14.8236L28.9956 16.3981C29.3659 16.5222 29.7537 16.5857 30.1442 16.5864C30.9813 16.5867 31.7929 16.2982 32.4419 15.7696C33.091 15.241 33.5377 14.5046 33.7068 13.6847L32.0783 13.3525C31.9864 13.7962 31.7446 14.1947 31.3935 14.4811C31.0424 14.7675 30.6035 14.9243 30.1504 14.9253Z" fill="#192C53"/>
<path d="M30.1559 9.31836C29.7656 9.31801 29.3777 9.38063 29.0073 9.50387L29.5322 11.0801C29.734 11.0134 29.9452 10.9794 30.1577 10.9795C30.6126 10.9798 31.0533 11.1373 31.4053 11.4254C31.7573 11.7135 31.9989 12.1144 32.0892 12.5602L33.7176 12.2297C33.5507 11.4081 33.105 10.6695 32.4559 10.1389C31.8068 9.60837 30.9943 9.31849 30.1559 9.31836V9.31836Z" fill="#192C53"/>
</svg>
