<svg width="60" height="60" viewBox="0 0 60 60" fill="none" xmlns="http://www.w3.org/2000/svg">
<path d="M30 2C26.2191 2 22.5524 2.74004 19.1017 4.19956C15.7678 5.60971 12.7731 7.62889 10.201 10.201C7.62889 12.7731 5.60971 15.7678 4.19956 19.1017C2.74004 22.5524 2 26.2191 2 30C2 33.7809 2.74004 37.4476 4.19956 40.8983C5.60971 44.2322 7.62889 47.2269 10.201 49.799C12.7731 52.3711 15.7678 54.3903 19.1017 55.8004C22.5524 57.26 26.2191 58 30 58C33.7809 58 37.4476 57.26 40.8983 55.8004C44.2322 54.3903 47.2269 52.3711 49.799 49.799C52.3711 47.2269 54.3903 44.2322 55.8004 40.8983C57.26 37.4476 58 33.7809 58 30C58 26.2191 57.26 22.5524 55.8004 19.1017C54.3903 15.7678 52.3711 12.7731 49.799 10.201C47.2269 7.62889 44.2322 5.60971 40.8983 4.19956C37.4476 2.74004 33.7809 2 30 2ZM30 0C46.5685 0 60 13.4315 60 30C60 46.5685 46.5685 60 30 60C13.4315 60 0 46.5685 0 30C0 13.4315 13.4315 0 30 0Z" fill="white"/>
<path d="M23.1055 18.7637L37.3165 24.2897" stroke="white" stroke-width="2" stroke-miterlimit="10"/>
<path d="M44.421 21.527V38.895L30.211 44.421L16 38.895V21.527L30.211 16.001L44.421 21.527Z" stroke="white" stroke-width="2" stroke-miterlimit="10"/>
<path d="M44.421 21.5273L30.21 27.0533L16 21.5273" stroke="white" stroke-width="2" stroke-linecap="round" stroke-linejoin="round"/>
<path d="M30.2109 27.0527V44.4207" stroke="white" stroke-width="2" stroke-miterlimit="10"/>
<path d="M19.1582 37.0804L23.8952 38.9214V35.5344L19.1582 33.6924V37.0804Z" fill="white"/>
</svg>
