<svg width="200" height="15" viewBox="0 0 200 15" fill="none" xmlns="http://www.w3.org/2000/svg">
<path d="M76.3757 14.8819L70.6447 14.9528L83.9802 0.291339L90.0024 0.275591L92.6159 14.8976L86.9637 14.9134L86.5622 12.5354L80.1464 12.5512L83.5551 8.85827H85.9561C85.8931 8.49606 85.8301 8.15748 85.7671 7.85039C85.712 7.53543 85.6491 7.23622 85.594 6.92913C85.5389 6.62205 85.4837 6.30709 85.4286 5.99213C85.3735 5.66142 85.3106 5.31496 85.2397 4.94488L76.3678 14.8819H76.3757Z" fill="white"/>
<path d="M102.22 5.0315L98.6617 14.8268L93.844 14.8425L99.1341 0.251969L106.746 0.23622L111.131 9.97638L114.674 0.220472L119.476 0.212598L114.186 14.7953L106.613 14.811L102.22 5.0315Z" fill="white"/>
<path d="M120.342 14.7795L114.611 14.8504L127.946 0.188976H133.968L136.582 14.8031L130.93 14.8189L130.528 12.4409H124.112L127.521 8.76378H129.922C129.859 8.40158 129.796 8.06299 129.741 7.75591C129.686 7.44882 129.623 7.14173 129.568 6.83465C129.513 6.52756 129.458 6.2126 129.403 5.88976C129.347 5.56693 129.284 5.22047 129.214 4.85039L120.334 14.7874L120.342 14.7795Z" fill="white"/>
<path d="M144.116 14.7874L139.07 14.8031L142.958 4.08661L136.834 4.10236L138.259 0.165354L155.373 0.133858L153.94 4.07087L148.004 4.07874L144.116 14.7874Z" fill="white"/>
<path d="M162.387 0.11811L157.073 14.7638L152.027 14.7717L157.341 0.125984L162.387 0.11811Z" fill="white"/>
<path d="M162.828 4.32283C163.332 2.92126 164.111 1.87402 165.15 1.17323C166.197 0.472441 167.551 0.110236 169.22 0.110236L181.556 0.0787402L180.06 4.20472L168.228 4.22835C167.921 4.22835 167.685 4.26772 167.512 4.35433C167.338 4.43307 167.228 4.53543 167.189 4.64567L166.732 5.7874L165.536 9.07874C165.488 9.24409 165.433 9.43307 165.37 9.62992C165.3 9.82677 165.237 10.0157 165.181 10.1811C165.056 10.5118 165.3 10.6772 165.89 10.6772L177.722 10.6457L176.234 14.7244L163.898 14.7559C162.229 14.7559 161.127 14.4094 160.6 13.7087C160.072 13.0079 160.057 11.9606 160.561 10.5669L162.828 4.33071V4.32283Z" fill="white"/>
<path d="M198.197 7.1811C198.307 7.98425 198.158 8.93701 197.756 10.0551C197.166 11.6693 196.379 12.8504 195.403 13.5827C194.419 14.315 193.12 14.685 191.506 14.685L181.445 14.7087L180.327 14.378L179.611 13.8976L179.343 13.3228L179.422 12.3701L179.926 10.9843L191.018 10.9606C191.388 10.9606 191.758 10.8976 192.112 10.7638C192.474 10.6299 192.71 10.3937 192.836 10.0472C192.97 9.66929 192.876 9.44095 192.553 9.34646C192.356 9.27559 192.136 9.23622 191.892 9.22047C191.648 9.2126 191.348 9.20472 190.986 9.20472C190.908 9.18898 190.766 9.18898 190.569 9.19685C190.372 9.19685 190.097 9.19685 189.758 9.18898H189.136C188.318 9.16535 187.656 9.15748 187.153 9.16536C186.649 9.16536 186.295 9.16535 186.09 9.14961C185.885 9.13386 185.688 9.12598 185.484 9.11811C185.287 9.11811 185.098 9.10236 184.909 9.09449C184.799 9.07874 184.697 9.07087 184.586 9.06299C184.476 9.06299 184.382 9.04724 184.311 9.0315H183.996C182.61 8.95276 181.76 8.47244 181.461 7.59055C181.343 7.27559 181.319 6.87402 181.374 6.3937C181.437 5.92126 181.587 5.37008 181.807 4.74803C182.366 3.18898 183.106 2.02362 183.996 1.23622C184.893 0.456693 186.043 0.0629921 187.46 0.0629921L197.993 0.102362L198.866 0.433071L199.528 0.826772L199.866 1.44882L200 2.27559L199.52 3.76378L188.452 3.7874C188.089 3.7874 187.751 3.85039 187.42 3.97638C187.09 4.10236 186.869 4.33858 186.743 4.67717C186.625 4.99213 186.68 5.2126 186.901 5.33071C187.121 5.44882 187.452 5.50394 187.893 5.50394H188.656C188.837 5.52756 189.239 5.55118 189.853 5.55906H190.451C191.16 5.59055 191.766 5.59055 192.27 5.5748C192.773 5.55906 193.159 5.55906 193.427 5.5748C193.608 5.59055 193.773 5.59055 193.938 5.5748C194.104 5.56693 194.253 5.56693 194.387 5.5748C194.466 5.59055 194.537 5.59843 194.608 5.59843C194.678 5.59843 194.734 5.59843 194.789 5.59843C194.978 5.6063 195.151 5.6063 195.316 5.59843C195.481 5.58268 195.631 5.58268 195.765 5.59843C196.45 5.65354 197.001 5.80315 197.418 6.06299C197.835 6.31496 198.095 6.68504 198.197 7.16536L198.213 7.18898L198.197 7.1811Z" fill="white"/>
<path d="M55.971 14.9606L61.4422 0.0472441L77.0448 0.0629921L75.5097 4.25984H65.0476L64.3549 6.14961L62.8907 10.1575L61.1273 14.9606H55.971ZM73.7464 6.14961L72.2664 10.1811H63.8511L65.3232 6.14961H73.7464Z" fill="white"/>
<path d="M27.6313 0L24.0416 9.80315C23.9786 9.9685 24.0179 10.1102 24.1518 10.2126C24.2856 10.3228 24.5375 10.3701 24.9075 10.3701H31.1974C31.6067 10.3701 31.9137 10.3228 32.1263 10.2205C32.3388 10.1181 32.4805 9.97638 32.5356 9.81102L36.1253 0.015748H41.1714L37.3534 10.4331C37.1093 11.1102 36.8181 11.685 36.4796 12.1811C36.1489 12.6693 35.6845 13.1339 35.0862 13.5669C34.8028 13.7638 34.5509 13.9291 34.3226 14.0709C34.0943 14.2126 33.8896 14.3228 33.7086 14.4094C33.3307 14.5906 32.8741 14.7244 32.3231 14.8031C32.0948 14.8583 31.7878 14.8976 31.402 14.9291C31.0163 14.9606 30.6306 14.9764 30.2291 14.9921C29.8119 14.9921 29.2608 14.9921 28.5838 14.9921C27.9068 15 27.1668 15 26.3717 15C25.5137 15 24.7737 15 24.136 14.9843C23.4984 14.9764 22.971 14.9764 22.5537 14.9685C21.6484 14.937 20.9872 14.874 20.5621 14.7795H20.5857C20.3495 14.7402 20.1448 14.685 19.9717 14.622C19.7985 14.5591 19.641 14.4803 19.4993 14.3937C19.3576 14.2992 19.2238 14.189 19.0979 14.0472C18.9719 13.9055 18.8459 13.7402 18.7042 13.5433C18.413 13.1102 18.287 12.6457 18.3185 12.1654C18.35 11.6772 18.4917 11.0945 18.7436 10.4094L22.5616 0H27.6313Z" fill="white"/>
<path d="M48.4059 14.9055L43.2732 14.8976L47.2566 4.02362L41.0297 4.01575L42.4939 0.023622L59.8914 0.0393701L58.4271 4.0315H52.3892L48.4059 14.9055Z" fill="white"/>
<path d="M0 14.8976L5.44753 0.023622L21.0108 0.0393701L19.4757 4.22835H9.05298L8.36023 6.11024L5.14052 14.8976H0ZM17.5077 6.11024L16.0356 10.1339H7.63599L9.10808 6.11024H17.5077Z" fill="white"/>
</svg>
