<svg width="38" height="25" viewBox="0 0 38 25" fill="none" xmlns="http://www.w3.org/2000/svg">
<path d="M35.9723 0H2.39701C1.42105 0 0.629883 0.791168 0.629883 1.76712V22.9726C0.629883 23.9486 1.42105 24.7397 2.39701 24.7397H35.9723C36.9483 24.7397 37.7395 23.9486 37.7395 22.9726V1.76712C37.7395 0.791168 36.9483 0 35.9723 0Z" fill="#991915"/>
<path fill-rule="evenodd" clip-rule="evenodd" d="M10.7211 9.76418C10.8801 9.65462 11.0851 9.15454 10.8509 8.9469C10.7969 8.91082 10.7355 8.88711 10.6712 8.87749C10.6069 8.86787 10.5413 8.87253 10.479 8.89119C10.4178 8.89603 10.3582 8.91338 10.304 8.9421C10.2497 8.97082 10.202 9.01032 10.1636 9.05821C10.0628 9.19604 9.97008 9.61042 10.1265 9.76505C10.2829 9.91967 10.6204 9.83398 10.7211 9.76418ZM8.45474 8.9469C8.34076 9.68732 8.21178 10.4136 8.08366 11.139C7.25576 11.1478 6.41109 11.1796 5.6097 11.1204C5.76079 10.4136 5.86856 9.65817 6.01788 8.9469H5.12634C4.80737 10.7582 4.51672 12.5978 4.16064 14.3711H5.07069C5.21294 13.461 5.34724 12.5421 5.53544 11.6779C6.35245 11.6389 7.17102 11.6452 7.98734 11.6965C7.8336 12.5951 7.64718 13.4636 7.50404 14.3711H8.41408C8.70654 12.5333 9.01492 10.7114 9.37983 8.9469H8.45474ZM21.3282 10.5073C21.039 10.4057 20.7222 10.416 20.4403 10.5364C20.1583 10.6567 19.9317 10.8784 19.805 11.1575C19.8633 10.9561 19.888 10.7202 19.9348 10.5073H19.228C19.0513 11.8459 18.8012 13.1023 18.5591 14.3711H19.3544C19.4214 13.5315 19.5583 12.6989 19.7635 11.8821C19.7991 11.7283 19.8669 11.5839 19.9625 11.4583C20.0581 11.3328 20.1794 11.229 20.3181 11.1538C20.4569 11.0786 20.61 11.0338 20.7674 11.0223C20.9248 11.0107 21.0828 11.0328 21.2311 11.0869C21.2461 10.8713 21.307 10.7087 21.3282 10.5108V10.5073ZM21.77 13.461C21.6975 13.2204 21.6723 12.9681 21.6958 12.7179C21.7167 12.1785 21.9051 11.6591 22.2348 11.2318C22.5153 11.054 22.8365 10.9505 23.168 10.931C23.4996 10.9116 23.8306 10.9767 24.13 11.1204C24.1504 10.8995 24.1945 10.7025 24.2228 10.4887C23.7742 10.3633 23.3027 10.3432 22.8452 10.4303C22.3876 10.5174 21.9565 10.7091 21.5854 10.9906C21.2916 11.3561 21.0825 11.7822 20.9733 12.2383C20.864 12.6944 20.8573 13.169 20.9536 13.628C21.2408 14.569 22.5299 14.6202 23.5725 14.2598C23.6184 14.0707 23.6432 13.8595 23.6838 13.6651C23.1175 13.962 22.028 14.1157 21.7744 13.461H21.77ZM30.7426 10.5258C30.4601 10.4188 30.148 10.4203 29.8666 10.5302C29.5852 10.64 29.3546 10.8503 29.2193 11.1204C29.2847 10.9384 29.2883 10.6946 29.3492 10.5073H28.6424C28.4521 11.8344 28.223 13.1223 27.955 14.3711H28.7722C28.7966 13.9024 28.8587 13.4364 28.9578 12.9777C29.1283 11.905 29.3792 10.729 30.6295 11.0825C30.6763 10.9022 30.694 10.6963 30.7461 10.5258H30.7426ZM9.90024 10.5073C9.87815 10.5073 9.87992 10.5364 9.88168 10.5629C9.70497 11.8794 9.46728 13.1332 9.21281 14.3711H10.008C10.1998 13.0457 10.4198 11.7487 10.6955 10.5073H9.90024ZM16.9219 10.433C16.3948 10.4395 15.8897 10.6454 15.5082 11.0091C14.9882 11.6721 14.7482 12.5121 14.8394 13.3497C14.9834 14.637 16.5853 14.5867 17.8673 14.2783C17.8894 14.0521 17.9442 13.8595 17.9786 13.6465C17.673 13.8006 17.3394 13.8915 16.9979 13.9138C16.6563 13.9361 16.3137 13.8894 15.9906 13.7764C15.5807 13.5166 15.578 12.8611 15.7123 12.2903C16.5738 12.2629 17.4688 12.2682 18.3312 12.2903C18.4511 11.8865 18.4765 11.4605 18.4054 11.0454C18.2314 10.5188 17.5846 10.3826 16.9263 10.433H16.9219ZM17.6835 11.8467H15.8078C15.8491 11.5929 15.9775 11.3613 16.171 11.1919C16.3645 11.0224 16.6109 10.9256 16.868 10.9181C17.4458 10.8942 17.8576 11.1293 17.688 11.845L17.6835 11.8467ZM13.894 10.509C13.5797 10.4174 13.2484 10.4003 12.9264 10.4588C12.6043 10.5174 12.3004 10.6501 12.0385 10.8465C12.0385 10.8589 12.0296 10.8607 12.0199 10.8616L12.0385 10.8465C12.0447 10.7228 12.088 10.6363 12.0941 10.5117H11.4067C11.1204 12.4175 10.7803 14.2695 10.4224 16.1029H11.2177C11.3334 15.3889 11.4094 14.6352 11.571 13.9664C11.7531 14.6732 12.945 14.5354 13.4469 14.2633C14.4895 13.6987 15.2891 11.0303 13.8984 10.5108L13.894 10.509ZM13.2622 13.6483C12.8345 14.1007 11.784 14.0901 11.7018 13.332C11.7044 12.9863 11.7544 12.6427 11.8503 12.3106C11.9121 11.9633 11.9563 11.6303 12.0172 11.3263C12.4378 10.8121 13.6748 10.7502 13.8003 11.6046C13.8918 12.3286 13.7006 13.0599 13.2666 13.6465L13.2622 13.6483ZM33.7184 8.83203C33.6504 9.43197 33.5585 10.0098 33.4401 10.5594C31.4804 9.94086 30.2787 11.3811 30.3008 13.1597C30.2799 13.4925 30.3786 13.8219 30.5791 14.0883C30.8557 14.3044 31.1892 14.4353 31.539 14.465C31.8887 14.4946 32.2395 14.4218 32.5486 14.2553C32.6541 14.1763 32.7478 14.0826 32.8269 13.977C32.879 13.9125 32.9603 13.742 32.9754 13.7914C32.9371 13.9815 32.9123 14.174 32.9012 14.3675H33.6256C33.8203 12.5073 34.118 10.6593 34.5172 8.83203H33.7184ZM31.9354 13.9408C31.3973 13.9523 31.1305 13.6191 31.1181 13.0678C31.0969 12.1012 31.521 11.0277 32.3816 10.9314C32.7169 10.9011 33.0545 10.952 33.3659 11.0798C33.0964 12.1692 33.1936 13.9169 31.9354 13.9443V13.9408ZM25.0436 10.5037C25.0048 10.7246 24.9438 10.9243 24.8952 11.1355C25.367 11.0171 26.8346 10.6548 26.9759 11.2839C27.0009 11.4869 26.9688 11.6928 26.8832 11.8785C25.5578 11.7531 24.4746 11.9731 24.1901 12.9185C24.0843 13.1695 24.069 13.4495 24.147 13.7105C24.225 13.9715 24.3915 14.1972 24.6178 14.349C24.9774 14.4902 25.3732 14.5104 25.7453 14.4064C26.1175 14.3025 26.4456 14.0801 26.68 13.7729C26.637 13.9681 26.6183 14.1678 26.6243 14.3675H27.3117C27.3295 13.7685 27.3978 13.172 27.5158 12.5845C27.6402 12.1105 27.7148 11.6249 27.7385 11.1355C27.6784 10.1194 25.989 10.4798 25.0436 10.5108V10.5037ZM26.3442 13.6244C25.9325 14.0273 24.7768 14.1422 24.8952 13.1826C24.9932 12.3821 25.8671 12.2107 26.809 12.3283C26.786 12.7979 26.6243 13.2503 26.3442 13.628V13.6244Z" fill="white"/>
</svg>
