<svg width="218" height="48" viewBox="0 0 218 48" fill="none" xmlns="http://www.w3.org/2000/svg">
<path fill-rule="evenodd" clip-rule="evenodd" d="M110.684 19.0501C111.155 18.4215 111.625 17.95 112.253 17.3213L115.233 13.8637C117.272 11.6634 119.311 9.14882 121.193 6.94853C121.35 6.79137 122.605 5.37689 122.605 5.21973H113.508C113.194 5.21973 113.194 5.21973 112.88 5.37689C111.312 7.26286 109.429 9.46314 107.861 11.3491C106.606 12.9207 105.037 14.6495 103.783 16.2212C103.626 16.5355 103.312 16.6927 103.155 17.007C102.998 17.1642 102.685 17.6356 102.371 17.7928V5.21973H94.6851V38.6955H94.9988C97.1947 38.6955 100.175 38.6955 102.214 38.6955C102.214 35.3951 102.214 31.9375 102.214 28.6371C102.214 28.1656 102.214 28.1656 102.371 28.0084L104.567 25.4938C104.724 25.3366 104.724 25.1795 105.037 25.0223C106.292 27.2226 108.018 29.7372 109.273 31.9375L112.41 37.1239C112.566 37.4382 112.723 37.7526 112.88 37.9097C113.037 38.0669 113.194 38.5384 113.351 38.8527H122.919L122.135 37.5954C120.252 34.9236 118.37 31.7804 116.488 29.1086C116.174 28.6371 116.017 28.3228 115.704 27.8513L111.782 21.7219C111.939 20.9361 110.841 19.3644 110.684 19.0501ZM209.346 27.5369C209.346 28.4799 209.189 29.7372 209.032 30.6802C208.561 33.5092 204.954 35.238 203.071 33.5092C201.973 32.2519 201.973 29.8944 203.856 28.9514C204.64 28.6371 205.738 28.4799 206.679 28.3228C208.404 28.0084 209.032 27.5369 209.346 27.5369ZM202.758 22.3505C202.758 20.9361 202.915 20.1503 203.699 19.3644C204.483 18.7358 205.581 18.4215 206.679 18.5786C207.306 18.5786 207.777 18.7358 208.091 19.0501C209.189 19.8359 209.189 20.7789 209.032 22.0362C209.032 22.6649 209.032 22.9792 208.404 23.2935C207.62 23.6079 206.208 23.9222 205.11 23.9222C204.013 24.0793 202.758 24.2365 201.66 24.3937C199.464 24.8652 197.895 25.3367 196.484 26.9083C193.974 29.7372 193.974 35.7094 197.581 37.9097C199.307 39.0099 201.817 39.167 204.169 38.8527C206.522 38.5384 208.091 37.5954 209.502 36.3381C209.659 36.4953 209.816 37.9097 209.973 38.2241H217.345V37.4382C217.188 37.2811 217.031 37.4382 216.718 37.1239C216.247 36.6524 216.09 35.7094 216.09 35.0808C216.09 33.9807 216.09 32.8805 216.09 31.6232C216.09 29.2657 216.09 27.0655 216.09 24.8652C216.09 20.7789 216.404 17.007 212.64 14.6495C209.816 12.9207 204.64 12.7636 201.189 13.8637C198.052 14.9639 195.856 18.1071 195.856 22.1934L202.758 22.3505ZM137.036 27.5369C136.879 30.0516 137.036 31.466 135.467 32.8805C132.801 35.5523 129.35 33.8235 129.977 30.8374C130.448 28.6371 132.33 28.6371 134.212 28.3228C134.997 28.1656 135.467 28.0084 136.251 27.6941C136.565 27.6941 136.722 27.5369 137.036 27.5369ZM130.448 22.5077C130.448 21.0932 130.762 20.3074 131.389 19.5216C132.487 18.5786 134.84 18.4215 135.938 19.2073C136.251 19.3644 136.722 19.8359 136.722 20.3074C136.879 20.7789 136.879 21.5647 136.879 22.1934C136.879 22.9792 136.722 23.1364 136.251 23.4507C135.467 23.765 133.899 24.0794 132.958 24.0794C131.86 24.2365 130.605 24.3937 129.664 24.5508C127.311 25.0223 125.742 25.651 124.487 27.0654C123.233 28.4799 122.605 30.6802 122.762 33.0377C123.233 38.2241 127.468 39.6385 132.173 38.8527C133.428 38.6955 134.212 38.3812 135.153 37.9097C136.251 37.4382 136.722 36.8096 137.349 36.3381C137.506 36.8096 137.663 37.9097 137.82 38.2241H145.192V37.2811C144.722 37.1239 144.408 36.9667 144.251 36.4953C143.78 35.2379 143.937 33.0377 143.937 31.6232C143.937 29.2657 143.937 27.0655 143.937 24.8652C143.937 20.7789 144.408 17.1642 140.487 14.6495C137.663 12.9207 132.33 12.7636 129.036 13.8637C125.585 15.121 123.703 18.5786 123.703 22.1934L130.448 22.5077ZM177.975 27.3798C177.661 23.765 178.602 19.9931 181.582 19.2073C183.308 18.7358 184.876 19.6788 185.661 20.7789C186.602 22.0362 186.915 23.2935 187.072 25.1795C187.386 28.6371 186.445 32.5662 183.465 33.352C181.582 33.8235 180.014 32.8805 179.23 31.7804C178.445 30.6802 178.132 29.1086 177.975 27.3798ZM178.288 36.8096C178.445 36.9668 178.445 36.9668 178.602 37.1239L179.386 37.7526C182.367 39.7957 187.229 39.4814 190.052 37.2811C193.033 34.9236 194.444 30.6802 194.288 25.651C194.288 23.2935 193.817 20.9361 192.876 19.0501C192.562 18.1071 191.935 17.3213 191.307 16.5355C189.425 14.0209 186.131 12.7636 182.837 13.3922C179.7 13.8637 178.132 16.064 177.818 16.2212V14.0209H171.073V47.1824H178.132L178.288 36.8096ZM162.289 27.0654C162.132 28.9514 161.819 30.3659 161.034 31.6232C160.25 32.7233 158.838 33.6663 156.956 33.352C153.505 32.7233 153.192 28.3228 153.192 25.3367C153.349 22.0362 154.76 18.4215 158.525 19.2073C161.819 19.8359 162.446 24.2365 162.289 27.0654ZM153.505 36.8096C153.505 36.8096 154.447 37.5954 154.603 37.7526C157.74 39.7957 162.446 39.4814 165.269 37.2811C168.093 35.0808 169.661 30.6802 169.661 25.651C169.505 20.7789 167.936 16.6927 164.642 14.6495C161.976 12.9207 158.211 12.6064 155.388 14.4924C153.976 15.4354 153.662 15.9068 153.192 16.2212V14.0209H146.447V47.1824H153.505V36.8096Z" fill="white"/>
<path d="M85.5393 40.0812C85.4317 39.9736 85.2165 39.866 85.2165 39.866H84.7861C84.6785 39.866 84.4633 39.866 84.3557 39.7584C83.8177 39.5432 83.3873 39.328 82.8494 39.0052C81.881 38.3596 80.9126 37.6064 79.9443 36.9609C79.9443 36.9609 79.9443 36.9609 79.8367 36.9609C79.4063 36.6381 78.7607 36.5305 78.3303 36.3153C77.6847 35.9925 77.1467 35.6697 76.6088 35.0241C75.9632 34.2709 75.4252 33.5178 74.7796 32.7646C73.0581 30.6127 71.8745 28.5683 70.3682 26.4164C69.9378 25.7708 69.077 24.6949 68.6466 24.0493C68.4314 23.7265 68.2162 23.5113 68.2162 23.5113C68.2162 23.4037 68.3238 23.1885 68.3238 23.0809C68.539 22.1125 68.7542 21.5746 68.7542 20.7138V20.391C68.7542 20.1758 68.2162 19.7454 67.8934 19.5302L67.3555 19.6378C67.2479 20.2834 66.9251 20.2834 66.4947 20.2834C66.3871 20.2834 66.1719 20.2834 65.7415 20.2834C65.5263 20.2834 65.2035 20.391 64.9883 20.4986C64.8807 20.4986 64.7731 20.6062 64.6655 20.6062C64.5579 20.6062 64.4503 20.7138 64.3427 20.8214C64.2351 20.8214 63.6972 21.2518 63.482 21.2518C63.0516 21.2518 61.6528 20.7138 61.4376 20.4986C61.33 20.391 61.33 20.1758 61.2224 20.0682C61.2224 19.7454 61.1149 19.4226 60.8997 19.0998C60.6845 18.6694 60.4693 18.2391 60.2541 17.7011H57.2414C57.2414 17.8087 57.1338 17.8087 57.2414 17.9163H56.9186C56.811 17.9163 56.7034 17.8087 56.5958 17.7011C55.9502 17.3783 55.3046 16.9479 54.6591 16.5175C54.4439 16.4099 54.2287 16.1947 54.0135 16.0871C53.9059 16.0871 53.0451 15.5491 53.0451 15.2264C53.0451 15.1188 53.4755 14.1504 53.6907 13.72C53.7983 13.6124 53.7983 13.3972 53.9059 13.2896C54.1211 13.0744 54.3363 12.9668 54.5515 12.9668C54.6591 12.9668 54.7666 12.9668 54.7666 12.9668C55.0894 13.2896 55.3046 13.6124 55.5198 13.9352C55.8426 14.4732 56.0578 15.0112 56.273 15.5491C56.5958 16.1947 57.1338 17.5935 57.1338 17.7011H60.1465C59.3933 16.4099 58.6401 15.1188 57.887 13.8276C57.5642 13.2896 57.1338 12.644 56.811 12.1061C56.811 11.9985 56.811 11.8909 56.7034 11.7833C56.7034 11.5681 56.5958 11.3529 56.5958 11.2453C56.5958 10.8149 56.9186 11.1377 56.9186 10.5997C56.9186 10.3845 56.9186 10.2769 56.7034 9.95413C56.5958 9.73893 56.7034 9.52374 56.5958 9.41614C56.4882 9.30855 56.3806 9.20095 56.273 9.20095C56.273 8.98576 56.3806 8.66297 56.3806 8.66297C56.3806 8.55537 56.1654 8.01739 56.1654 7.90979C56.1654 7.80219 56.4882 7.37181 56.4882 7.26421C56.4882 7.15662 56.3806 7.04902 56.3806 7.04902C56.1654 6.94142 55.9502 6.83383 55.735 6.72623C55.6274 6.61863 55.4122 6.51104 55.3046 6.40344C55.197 6.29584 55.197 5.97305 55.197 5.86546C55.197 5.43507 54.5515 5.00468 54.4439 4.68189C54.2287 4.25151 54.3363 3.60593 53.9059 3.17554C53.7983 3.06795 52.8299 2.31477 52.2919 2.31477C52.1843 2.31477 51.6464 2.42237 51.6464 2.42237C51.5388 2.42237 51.1084 2.31477 50.8932 2.20718H50.4628C50.3552 2.20718 50.0324 2.63756 49.9248 2.74516C49.7096 2.85275 49.4944 2.74516 49.3868 2.85275C49.2792 2.85275 49.064 2.96035 48.8488 2.96035C48.7412 2.96035 48.4185 2.85275 48.3109 2.85275H47.8805C47.7729 2.85275 47.6653 2.85275 47.6653 2.96035C47.3425 3.17554 47.1273 3.39074 46.9121 3.60593C46.8045 3.71353 46.8045 3.92872 46.6969 4.03632C46.5893 4.25151 46.3741 4.4667 46.2665 4.5743C46.1589 4.68189 46.1589 4.89709 46.0513 5.11228C45.9437 5.21988 45.8361 5.43507 45.8361 5.54267C45.7285 6.29584 45.5133 7.80219 45.5133 7.90979C45.5133 8.12498 45.6209 8.01739 45.7285 8.23258C45.7285 8.34018 45.7285 8.44777 45.7285 8.55537C45.7285 8.66297 45.8361 8.66297 45.9437 8.77056C46.0513 9.20095 46.1589 9.84653 46.3741 10.2769C46.4817 10.4921 46.4817 10.7073 46.6969 10.9225C46.9121 11.2453 47.0197 11.3529 47.0197 11.6757C47.0197 12.2137 46.9121 11.9985 46.3741 12.4288C46.2665 12.4288 46.2665 12.644 46.2665 12.644C46.3741 12.8592 46.6969 13.2896 46.6969 13.5048C46.6969 13.72 46.0513 14.0428 46.0513 14.1504C46.0513 14.3656 46.2665 14.6884 46.2665 15.1188C46.2665 15.2264 46.2665 15.334 46.2665 15.4416C46.2665 15.5491 46.0513 15.5491 46.0513 15.6567C45.6209 16.4099 45.083 17.0555 44.6526 17.8087L44.4374 18.1315C44.2222 18.4543 44.007 18.777 43.8994 19.0998C43.5766 19.7454 43.2538 20.4986 43.0386 21.2518C42.8234 21.2518 42.7158 20.6062 42.6082 20.4986C42.6082 20.391 42.5006 20.1758 42.393 20.0682C42.393 19.9606 42.2854 19.7454 42.2854 19.6378C42.0703 19.2074 41.7475 18.6694 41.5323 18.2391L41.3171 17.8087C41.2095 17.7011 41.1019 17.4859 41.1019 17.3783C40.7791 16.7327 40.3487 16.0871 40.0259 15.334C39.9183 15.1188 39.5955 14.9036 39.4879 14.6884C39.2727 14.258 38.412 13.5048 37.874 13.0744C38.0892 12.8592 38.1968 12.4288 38.1968 12.3213C38.1968 11.9985 37.7664 12.1061 37.7664 11.8909C37.7664 11.6757 37.874 11.7833 38.0892 11.4605C37.9816 11.1377 37.6588 11.2453 37.5512 11.2453V11.0301C37.5512 10.9225 37.6588 10.7073 37.7664 10.5997L37.2284 9.73893C37.2284 9.63134 37.2284 9.52374 37.2284 9.41614H37.4436C37.4436 9.52374 37.5512 9.52374 37.6588 9.52374C37.6588 7.587 37.6588 7.47941 37.6588 7.47941C37.6588 7.37181 37.6588 7.26421 37.6588 7.15661C37.6588 7.04902 37.5512 6.40344 37.5512 6.29584C37.5512 6.18825 37.5512 6.18825 37.5512 6.08065C37.5512 5.97305 37.6588 5.86546 37.6588 5.86546C37.6588 5.75786 37.4436 5.21988 37.4436 5.11228V4.14391C37.4436 4.03632 37.4436 3.92872 37.4436 3.82112C37.4436 3.60593 37.336 3.39074 37.2284 3.17554C37.1208 2.96035 36.9056 2.74516 36.798 2.63756C36.798 2.63756 36.798 2.52996 36.6904 2.42237C36.5828 2.20717 36.3676 2.09958 36.1524 1.88438C36.0448 1.77679 35.9373 1.88438 35.8297 1.77679C35.3993 1.3464 35.0765 1.3464 34.6461 1.3464C34.4309 1.13121 33.8929 0.916016 33.5701 0.916016C33.4625 0.916016 33.1397 0.916016 33.0321 1.02361C32.7094 1.13121 32.6018 1.2388 32.3866 1.2388C32.0638 1.2388 31.8486 1.02361 31.6334 1.02361C31.5258 1.02361 31.4182 1.2388 31.3106 1.2388H30.127C30.0194 1.2388 29.8042 1.3464 29.6967 1.3464C29.5891 1.56159 29.3739 1.77679 29.2663 1.88438C29.1587 1.99198 29.0511 1.99198 28.9435 1.99198C28.8359 2.09958 28.7283 2.20717 28.6207 2.31477C28.5131 2.31477 28.4055 2.42237 28.4055 2.42237C28.0827 2.74516 27.3295 3.28314 27.3295 3.71353C27.3295 4.03632 27.3295 4.14391 27.3295 4.14391C27.3295 4.25151 27.3295 4.35911 27.3295 4.35911C27.4371 4.5743 27.6523 4.6819 27.7599 4.78949L27.3295 6.08065C27.4371 6.18825 27.5447 6.51104 27.5447 6.72623C27.1143 7.15662 26.6839 7.587 26.2536 8.01739C26.146 8.12499 26.146 8.34018 26.146 8.34018C26.146 8.66297 27.0067 8.87816 27.0067 9.09335V9.52374C27.1143 9.63134 27.2219 9.73893 27.2219 9.84653C27.2219 9.95413 27.1143 10.5997 27.1143 10.9225C26.8991 11.9985 26.3612 12.9668 25.9308 14.0428C25.7156 14.6884 25.608 15.4416 25.2852 15.9795C24.8548 16.7327 22.3801 17.3783 21.4117 17.3783C21.0889 17.3783 20.7661 17.3783 20.5509 17.2707C20.1206 17.1631 20.2282 17.0555 19.9054 17.0555C19.2598 17.0555 18.6142 17.5935 18.1838 17.7011H18.0762C18.0762 17.7011 18.0762 17.7011 17.9686 17.7011H17.5382H17.9686C17.861 17.7011 17.861 17.4859 17.4306 17.4859C17.323 17.5935 17.323 17.5935 17.2155 17.7011C16.8927 18.3467 16.6775 18.5619 16.6775 19.0998C16.6775 19.7454 16.8927 20.2834 17.1079 20.929C17.2155 21.1442 17.4306 21.5746 17.4306 21.6821C17.4306 21.7897 17.4306 21.8973 17.323 22.0049C16.8927 22.7581 16.3547 23.5113 15.9243 24.2645C15.8167 24.3721 15.7091 24.5873 15.7091 24.6949C15.6015 25.0176 15.3863 25.2328 15.1711 25.5556C14.6331 26.524 13.9876 27.4924 13.342 28.4607L12.6964 29.2139C11.0824 31.6886 6.67099 35.3469 2.90511 36.9609C2.79751 36.9609 2.68991 37.0685 2.58232 37.0685C2.15193 37.2836 1.72154 37.3912 1.29116 37.4988C1.07597 37.6064 0.753176 37.6064 0.537983 37.714C0.32279 37.8216 0 37.9292 0 38.252C0 38.5748 0.430386 38.79 0.753176 38.8976C0.860772 38.8976 1.29116 38.8976 1.29116 39.0052C1.07597 39.2204 0.860773 39.4356 0.860773 39.6508C0.860773 39.7584 1.07597 39.9736 1.18356 40.0812C1.82914 40.1888 2.47472 40.4039 3.1203 40.5115C3.2279 40.5115 3.33549 40.6191 3.33549 40.6191H3.76588C3.87348 40.6191 3.98107 40.6191 3.98107 40.7267H5.48743C6.56339 40.6191 7.63936 40.1888 8.82292 40.1888L11.4052 40.5115H12.4812C12.5888 40.5115 13.0192 40.404 13.342 40.1888C13.5572 40.0812 13.6648 39.7584 13.6648 39.5432C13.6648 39.2204 13.6648 39.0052 13.6648 38.8976L13.4496 36.9609V36.6381C13.4496 36.5305 13.5572 36.4229 13.5572 36.3153C14.2027 34.5937 16.4623 32.9798 17.9686 31.581C18.8294 30.7203 19.9054 29.8595 20.5509 28.9987C20.9813 28.4607 21.1965 27.9227 21.6269 27.3848C21.7345 27.2772 21.8421 27.2772 21.9497 27.2772C22.0573 27.2772 22.1649 27.2772 22.2725 27.4924C22.8105 28.7835 23.3485 30.1823 24.1016 31.4734C24.8548 32.9798 25.7156 34.4861 26.6839 35.8849C26.8991 36.2077 27.2219 36.6381 27.4371 36.9609C28.0827 37.9292 28.6207 38.79 29.3739 39.7584C29.9118 40.4039 30.665 40.7267 31.3106 40.8343H36.0448C36.5828 40.7267 37.1208 40.7267 37.6588 40.404C37.7664 40.2964 37.874 40.0812 37.9816 39.9736C39.0576 38.8976 39.7031 37.9292 40.3487 36.8533C40.6715 36.3153 40.9943 35.8849 41.3171 35.3469C41.5323 35.0241 41.7475 34.5937 41.9627 34.1634C42.393 33.5178 42.6082 32.8722 42.8234 32.2266C43.0386 31.7962 43.1462 31.3658 43.2538 31.0431C43.3614 30.8279 43.3614 30.5051 43.5766 30.2899C44.007 30.9355 44.007 31.581 44.2222 32.119C44.4374 32.8722 44.7602 33.733 44.9754 34.4861C45.1906 35.0241 45.4057 35.5621 45.5133 36.1001C45.6209 36.3153 45.6209 36.6381 45.6209 36.8533C45.8361 38.5748 45.9437 40.8343 48.4185 41.0495H52.9375C53.5831 40.9419 54.3363 40.8343 54.9818 40.6191C55.3046 40.5115 55.6274 40.404 55.8426 40.1888C56.811 39.5432 57.9945 38.252 59.0705 36.8533C59.9313 35.6697 60.7921 34.4861 61.5452 33.4102C61.6528 33.195 61.868 32.8722 61.9756 32.657C63.0516 31.1506 63.8048 29.6443 64.8807 28.1379H65.0959C65.7415 29.5367 66.8175 31.0431 68.2162 32.3342C68.8618 32.9798 69.5074 33.3026 70.0454 33.8406C70.153 33.9482 70.3682 33.9482 70.4757 34.0558C71.1213 34.7013 71.8745 35.1317 72.4125 35.7773C72.6277 35.9925 73.0581 36.5305 73.4885 36.9609C73.7036 37.2837 73.9188 37.4988 73.9188 37.714C73.9188 37.8216 73.8112 38.0368 73.8112 38.1444C73.7037 38.4672 73.7036 39.0052 73.7036 39.0052C73.7036 39.1128 73.7036 39.1128 73.7036 39.5432C73.7036 39.7584 73.8112 39.9736 73.9188 40.1888C74.134 40.404 74.5644 40.6191 74.7796 40.6191H78.0075L79.8367 40.9419H80.267C80.3746 40.9419 80.5898 41.0495 80.6974 41.0495H83.6025C83.8177 41.0495 84.1405 41.0495 84.3557 40.9419C84.4633 40.9419 85.5393 40.7267 85.5393 40.404C85.5393 40.404 85.5393 40.1888 85.5393 40.0812ZM29.2663 11.9985C29.2663 11.8909 29.3739 11.8909 29.4815 11.8909C29.9118 11.8909 30.2346 11.9985 30.665 12.5364C30.7726 12.644 30.9878 12.9668 30.9878 13.0744C30.9878 13.182 30.9878 13.2896 30.665 13.5048C30.4498 13.6124 30.127 13.72 29.8042 13.8276C29.8042 13.8276 29.0511 14.258 28.8359 14.258C28.7283 14.258 28.6207 14.258 28.6207 14.0428C28.7283 13.9352 29.0511 12.644 29.2663 11.9985ZM33.3549 25.986L33.2473 28.6759C33.2473 28.7835 33.1397 29.9671 32.7094 29.9671C32.3866 29.9671 31.8486 28.8911 31.741 28.7835C31.4182 28.3531 29.8042 25.7708 28.7283 23.9417C28.1903 22.9733 27.7599 22.3277 27.7599 22.3277C27.7599 22.1125 28.0827 22.0049 28.1903 22.0049C28.6207 21.7897 29.0511 21.5746 29.4815 21.3594C29.6966 21.2518 29.9118 21.1442 30.127 21.0366C30.7726 20.7138 31.6334 20.1758 32.279 19.9606C32.3866 20.0682 32.3866 20.0682 32.3866 20.1758C32.4942 20.6062 32.6018 21.2518 32.6018 21.3594V21.7897C32.6018 22.0049 33.0321 23.7265 33.1397 23.8341V23.9417C33.2473 24.2645 33.5701 24.8025 33.5701 25.1252C33.5701 25.448 33.4625 25.7708 33.3549 25.986ZM59.8237 24.0493C59.7161 24.3721 59.0705 24.8025 58.8553 25.0176C57.2414 26.6316 55.6274 28.3531 53.9059 29.8595C53.6907 30.0747 53.4755 30.1823 53.2603 30.1823C52.8299 30.1823 52.8299 29.4291 52.8299 29.1063V28.3531C52.9375 27.8152 52.9375 27.062 53.5831 26.6316C53.5831 26.6316 53.6907 26.6316 53.7983 26.6316C54.1211 26.4164 55.6274 25.986 55.6274 25.2328C55.6274 24.91 55.4122 24.4797 55.3046 24.1569C55.197 23.9417 55.197 23.8341 55.0894 23.7265C54.8742 23.1885 54.6591 22.2201 54.6591 22.2201V22.1125C56.3806 22.7581 58.1021 23.2961 59.8237 23.9417C59.9313 23.9417 59.9313 24.0493 59.9313 24.1569C59.8237 23.9417 59.8237 23.9417 59.8237 24.0493Z" fill="white"/>
</svg>
