<svg width="38" height="25" viewBox="0 0 38 25" fill="none" xmlns="http://www.w3.org/2000/svg">
<path d="M35.6574 0H2.08206C1.10611 0 0.314941 0.791168 0.314941 1.76712V22.9726C0.314941 23.9486 1.10611 24.7397 2.08206 24.7397H35.6574C36.6334 24.7397 37.4245 23.9486 37.4245 22.9726V1.76712C37.4245 0.791168 36.6334 0 35.6574 0Z" fill="white"/>
<path fill-rule="evenodd" clip-rule="evenodd" d="M31.0496 10.2569C31.0507 11.2549 30.8551 12.2434 30.4741 13.1658C30.0931 14.0882 29.5341 14.9266 28.8291 15.6329C28.124 16.3393 27.2867 16.8999 26.365 17.2826C25.4433 17.6653 24.4552 17.8627 23.4572 17.8635C22.4592 17.8627 21.4711 17.6653 20.5494 17.2826C19.6277 16.8999 18.7904 16.3393 18.0853 15.6329C17.3803 14.9266 16.8213 14.0882 16.4403 13.1658C16.0593 12.2434 15.8637 11.2549 15.8648 10.2569C15.8637 9.25891 16.0593 8.27051 16.4403 7.34809C16.8213 6.42566 17.3803 5.58733 18.0853 4.88097C18.7904 4.17461 19.6277 3.61403 20.5494 3.23131C21.4711 2.84858 22.4592 2.6512 23.4572 2.65039C24.4552 2.6512 25.4433 2.84858 26.365 3.23131C27.2867 3.61403 28.124 4.17461 28.8291 4.88097C29.5341 5.58733 30.0931 6.42566 30.4741 7.34809C30.8551 8.27051 31.0507 9.25891 31.0496 10.2569V10.2569Z" fill="#F79F1A"/>
<path fill-rule="evenodd" clip-rule="evenodd" d="M21.6839 10.2569C21.685 11.2549 21.4894 12.2434 21.1084 13.1658C20.7274 14.0882 20.1684 14.9266 19.4633 15.6329C18.7583 16.3393 17.921 16.8999 16.9993 17.2826C16.0776 17.6653 15.0895 17.8627 14.0915 17.8635C13.0935 17.8627 12.1054 17.6653 11.1837 17.2826C10.262 16.8999 9.42466 16.3393 8.71961 15.6329C8.01457 14.9266 7.45558 14.0882 7.07456 13.1658C6.69355 12.2434 6.49798 11.2549 6.49903 10.2569C6.49798 9.25891 6.69355 8.27051 7.07456 7.34809C7.45558 6.42566 8.01457 5.58733 8.71961 4.88097C9.42466 4.17461 10.262 3.61403 11.1837 3.23131C12.1054 2.84858 13.0935 2.6512 14.0915 2.65039C15.0895 2.6512 16.0776 2.84858 16.9993 3.23131C17.921 3.61403 18.7583 4.17461 19.4633 4.88097C20.1684 5.58733 20.7274 6.42566 21.1084 7.34809C21.4894 8.27051 21.685 9.25891 21.6839 10.2569V10.2569Z" fill="#EA001B"/>
<path fill-rule="evenodd" clip-rule="evenodd" d="M18.7754 4.26953C17.868 4.98132 17.1346 5.8903 16.6306 6.9276C16.1267 7.9649 15.8654 9.10331 15.8667 10.2565C15.8652 11.4101 16.1263 12.5488 16.6302 13.5865C17.1342 14.6241 17.8678 15.5333 18.7754 16.2453C19.683 15.5333 20.4166 14.6241 20.9205 13.5865C21.4245 12.5488 21.6856 11.4101 21.6841 10.2565C21.6854 9.10331 21.4241 7.9649 20.9202 6.9276C20.4162 5.8903 19.6828 4.98132 18.7754 4.26953V4.26953Z" fill="#FF5F01"/>
<path d="M8.18831 21.6264H7.75537V19.6163H8.17771V19.8611C8.34786 19.716 8.55071 19.6144 8.76881 19.5651C8.90289 19.5741 9.03344 19.612 9.15149 19.6762C9.26954 19.7404 9.37229 19.8294 9.45269 19.9371C9.52453 19.8228 9.62427 19.7287 9.74252 19.6636C9.86077 19.5985 9.99364 19.5646 10.1286 19.5651C10.3151 19.5576 10.4981 19.6176 10.6441 19.7339C10.7901 19.8502 10.8894 20.0151 10.9238 20.1986V21.6176H10.5103V20.3674C10.5086 20.312 10.4953 20.2577 10.4712 20.2078C10.4472 20.158 10.4129 20.1137 10.3707 20.0779C10.3285 20.0421 10.2792 20.0155 10.2261 19.9999C10.173 19.9844 10.1172 19.9801 10.0624 19.9874C9.94528 19.974 9.8275 20.0058 9.73319 20.0765C9.63887 20.1471 9.57518 20.2512 9.55518 20.3674V21.6176H9.124V20.3594C9.11301 20.252 9.06308 20.1524 8.98364 20.0793C8.9042 20.0062 8.80076 19.9647 8.69283 19.9627C8.18655 19.9627 8.17771 20.3682 8.17771 20.3682L8.18831 21.6264Z" fill="black"/>
<path d="M21.2907 19.5654C21.0726 19.6147 20.8697 19.7163 20.6996 19.8614V19.6167H20.2764V21.6268H20.7076L20.6996 20.3686C20.6996 20.3686 20.7093 19.9639 21.2147 19.9639C21.2934 19.9618 21.3711 19.9817 21.4391 20.0213V20.0213L21.5796 19.6299C21.4884 19.59 21.3903 19.5681 21.2907 19.5654V19.5654Z" fill="black"/>
<path d="M27.3589 19.5654C27.1408 19.6147 26.938 19.7163 26.7678 19.8614V19.6167H26.3481V21.6268H26.7793L26.7714 20.3686C26.7714 20.3686 26.7811 19.9639 27.2865 19.9639C27.3652 19.9618 27.4429 19.9817 27.5109 20.0213V20.0213L27.6514 19.6299C27.56 19.5906 27.4619 19.5693 27.3625 19.5672L27.3589 19.5654Z" fill="black"/>
<path d="M12.318 19.5564C12.0465 19.5663 11.7901 19.6835 11.6049 19.8822C11.4197 20.081 11.3209 20.3451 11.3302 20.6166C11.3265 20.8904 11.4293 21.1548 11.6169 21.3541C11.8045 21.5534 12.0622 21.672 12.3357 21.6849C12.5775 21.6703 12.808 21.5773 12.9922 21.4198V21.6248H13.4163V19.612H12.9904V19.8656C12.8147 19.6792 12.5739 19.5675 12.318 19.5537V19.5564ZM12.4002 19.9663C12.5725 19.9725 12.7352 20.0468 12.8528 20.1729C12.9704 20.2989 13.0332 20.4665 13.0275 20.6387C13.033 20.8108 12.97 20.978 12.8525 21.1037C12.7349 21.2294 12.5722 21.3034 12.4002 21.3093C12.2283 21.3034 12.0658 21.2293 11.9485 21.1036C11.8312 20.9778 11.7687 20.8106 11.7746 20.6387C11.7687 20.4667 11.8312 20.2993 11.9484 20.1732C12.0657 20.0472 12.2281 19.9728 12.4002 19.9663V19.9663Z" fill="black"/>
<path d="M24.6852 19.5564C24.4137 19.5663 24.1572 19.6835 23.972 19.8822C23.7868 20.081 23.6881 20.3451 23.6974 20.6166C23.6936 20.8904 23.7964 21.1548 23.9841 21.3541C24.1717 21.5534 24.4294 21.672 24.7029 21.6849C24.9447 21.6703 25.1752 21.5772 25.3593 21.4198V21.6248H25.7835V19.612H25.3576V19.8656C25.1818 19.6792 24.941 19.5675 24.6852 19.5537V19.5564ZM24.7682 19.9663C24.9405 19.9725 25.1033 20.0468 25.2209 20.1729C25.3385 20.2989 25.4013 20.4665 25.3956 20.6387C25.4011 20.8108 25.3381 20.978 25.2205 21.1037C25.1029 21.2294 24.9403 21.3034 24.7682 21.3093C24.5964 21.3034 24.4339 21.2293 24.3166 21.1036C24.1993 20.9778 24.1367 20.8106 24.1427 20.6387C24.1367 20.4668 24.1991 20.2995 24.3162 20.1735C24.4333 20.0475 24.5955 19.973 24.7674 19.9663H24.7682Z" fill="black"/>
<path d="M28.7574 19.557C28.486 19.5671 28.2297 19.6844 28.0445 19.8831C27.8594 20.0818 27.7605 20.3458 27.7696 20.6172C27.7659 20.891 27.8687 21.1554 28.0563 21.3548C28.2439 21.5541 28.5017 21.6727 28.7751 21.6855C29.017 21.671 29.2475 21.5779 29.4316 21.4204V21.6254H29.8557V18.8184H29.4298V19.8662C29.254 19.6798 29.0133 19.5682 28.7574 19.5543V19.557ZM28.8396 19.967C29.0119 19.9732 29.1747 20.0475 29.2923 20.1735C29.4099 20.2996 29.4727 20.4671 29.467 20.6394C29.4724 20.8114 29.4095 20.9786 29.2919 21.1043C29.1743 21.23 29.0116 21.304 28.8396 21.31C28.6677 21.304 28.5053 21.23 28.388 21.1042C28.2706 20.9785 28.2081 20.8112 28.2141 20.6394C28.2079 20.4672 28.2702 20.2995 28.3875 20.1733C28.5048 20.0471 28.6674 19.9725 28.8396 19.9661V19.967Z" fill="black"/>
<path d="M14.7099 21.6939C14.4098 21.678 14.1188 21.5849 13.8652 21.4235L14.0508 21.1364C14.2588 21.2326 14.4817 21.2924 14.7099 21.3131C14.8866 21.3131 15.1879 21.2556 15.1915 21.0763C15.195 20.8969 14.6887 20.8316 14.6887 20.8316C14.6887 20.8316 13.9324 20.8209 13.9324 20.198C13.9324 19.8057 14.3097 19.5557 14.7939 19.5557C15.0723 19.5954 15.3429 19.678 15.5961 19.8004L15.385 20.13C15.1864 20.0488 14.9787 19.9921 14.7665 19.9612C14.5898 19.955 14.3698 20.0407 14.3698 20.198C14.3698 20.6239 15.6288 20.1644 15.6288 21.0259C15.6288 21.5905 15.1164 21.693 14.7082 21.693L14.7099 21.6939Z" fill="black"/>
<path d="M16.3297 19.033V19.6179H15.9551V20.0402H16.3297V21.0511C16.3245 21.1438 16.3392 21.2365 16.3728 21.323C16.4065 21.4096 16.4583 21.4879 16.5248 21.5527C16.5913 21.6175 16.6709 21.6673 16.7582 21.6988C16.8456 21.7302 16.9387 21.7425 17.0313 21.7349C17.2371 21.7104 17.4389 21.6599 17.6321 21.5848L17.4616 21.143C17.3663 21.2216 17.2482 21.2674 17.1249 21.2738C16.7847 21.2649 16.7945 21.0475 16.7945 21.0475V20.0385H17.4951V19.6162H16.7945V19.0312L16.3297 19.033Z" fill="black"/>
<path d="M18.8823 19.585C18.744 19.5838 18.6069 19.6107 18.4792 19.6639C18.3515 19.7171 18.2359 19.7956 18.1393 19.8947C18.0427 19.9937 17.9672 20.1112 17.9172 20.2402C17.8673 20.3692 17.8439 20.507 17.8485 20.6452C17.8411 20.7886 17.8638 20.932 17.9151 21.0661C17.9665 21.2003 18.0453 21.3222 18.1466 21.424C18.2479 21.5257 18.3694 21.6052 18.5033 21.6572C18.6371 21.7092 18.7804 21.7326 18.9239 21.7258C19.2024 21.6884 19.4694 21.5911 19.7067 21.4405L19.5105 21.0985C19.337 21.2209 19.135 21.297 18.9239 21.3194C18.776 21.3229 18.6324 21.269 18.5234 21.169C18.4144 21.0691 18.3483 20.9307 18.3389 20.7831H19.8092C19.8092 20.7831 19.9187 19.585 18.8823 19.585ZM18.8196 19.9799C18.8355 19.9799 18.8532 19.9799 18.8708 19.9799C18.9372 19.9759 19.0037 19.9856 19.0661 20.0084C19.1286 20.0313 19.1857 20.0667 19.2338 20.1125C19.282 20.1584 19.3202 20.2136 19.3461 20.2749C19.3719 20.3362 19.3849 20.4021 19.3842 20.4686H18.3389C18.3356 20.404 18.3457 20.3395 18.3685 20.2791C18.3913 20.2186 18.4264 20.1635 18.4716 20.1173C18.5167 20.0711 18.571 20.0347 18.6308 20.0104C18.6907 19.9862 18.755 19.9746 18.8196 19.9764V19.9799Z" fill="black"/>
<path d="M23.255 21.0929L23.452 21.4869C23.252 21.6099 23.0239 21.6798 22.7893 21.6901C22.645 21.6973 22.5006 21.6753 22.3649 21.6254C22.2292 21.5755 22.105 21.4987 21.9996 21.3998C21.8942 21.3008 21.8098 21.1817 21.7515 21.0494C21.6932 20.9171 21.6621 20.7744 21.6602 20.6299C21.6539 20.4881 21.6776 20.3466 21.7297 20.2146C21.7819 20.0825 21.8613 19.963 21.9628 19.8638C22.0642 19.7645 22.1855 19.6878 22.3187 19.6387C22.4518 19.5895 22.5938 19.569 22.7354 19.5784C22.9961 19.5888 23.2495 19.6671 23.4706 19.8055L23.2497 20.1996C23.1856 20.1246 23.1043 20.0664 23.0127 20.03C22.9211 19.9935 22.822 19.9798 22.724 19.9902C22.6412 19.9928 22.5597 20.0121 22.4845 20.0469C22.4093 20.0816 22.3419 20.1311 22.2862 20.1924C22.2305 20.2538 22.1876 20.3256 22.1602 20.4038C22.1328 20.482 22.1214 20.5649 22.1267 20.6475C22.1207 20.7312 22.1317 20.8151 22.1592 20.8943C22.1866 20.9735 22.2299 21.0463 22.2863 21.1083C22.3427 21.1703 22.4112 21.2201 22.4875 21.2548C22.5638 21.2895 22.6464 21.3084 22.7302 21.3102C22.9239 21.2971 23.1083 21.2218 23.2559 21.0955L23.255 21.0929Z" fill="black"/>
<path d="M30.7438 21.3506C30.6887 21.3502 30.6357 21.3714 30.5962 21.4098C30.5771 21.4284 30.562 21.4507 30.5517 21.4753C30.5414 21.4999 30.5361 21.5263 30.5361 21.5529C30.5361 21.5796 30.5414 21.606 30.5517 21.6306C30.562 21.6552 30.5771 21.6775 30.5962 21.6961C30.6355 21.7349 30.6886 21.7565 30.7438 21.7562C30.7984 21.7561 30.8507 21.7345 30.8896 21.6961C30.9086 21.6774 30.9237 21.6552 30.934 21.6306C30.9443 21.606 30.9496 21.5796 30.9496 21.5529C30.9496 21.5263 30.9442 21.5 30.9339 21.4754C30.9236 21.4508 30.9085 21.4285 30.8896 21.4098C30.8506 21.3717 30.7982 21.3504 30.7438 21.3506V21.3506ZM30.7438 21.7111C30.723 21.7112 30.7023 21.7072 30.6831 21.6993C30.6638 21.6914 30.6463 21.6798 30.6316 21.6652C30.617 21.6505 30.6054 21.6332 30.5975 21.6141C30.5896 21.595 30.5856 21.5745 30.5856 21.5538C30.5855 21.5332 30.5895 21.5127 30.5974 21.4936C30.6053 21.4744 30.6169 21.4571 30.6316 21.4425C30.6614 21.413 30.7018 21.3964 30.7438 21.3965C30.7643 21.3965 30.7846 21.4006 30.8036 21.4085C30.8225 21.4164 30.8397 21.4279 30.8542 21.4425C30.8688 21.4571 30.8805 21.4744 30.8883 21.4936C30.8962 21.5127 30.9002 21.5332 30.9001 21.5538C30.9002 21.5745 30.8961 21.595 30.8883 21.6141C30.8804 21.6332 30.8688 21.6505 30.8542 21.6652C30.8397 21.6797 30.8225 21.6913 30.8036 21.6992C30.7846 21.7071 30.7643 21.7111 30.7438 21.7111ZM30.7552 21.4584H30.6669V21.6466H30.7075V21.5759H30.7261L30.7835 21.6466H30.8321L30.7703 21.5759C30.7866 21.5746 30.8021 21.5681 30.8145 21.5574C30.8195 21.5524 30.8236 21.5465 30.8263 21.54C30.8291 21.5335 30.8304 21.5265 30.8304 21.5194C30.8308 21.511 30.8292 21.5027 30.8259 21.495C30.8225 21.4873 30.8174 21.4806 30.8109 21.4752C30.7948 21.4635 30.7752 21.4576 30.7552 21.4584V21.4584ZM30.7552 21.4938C30.7642 21.4932 30.7732 21.4954 30.7809 21.4999C30.784 21.5019 30.7865 21.5047 30.7882 21.508C30.7899 21.5112 30.7907 21.5148 30.7906 21.5185C30.7908 21.5223 30.79 21.5261 30.7883 21.5295C30.7866 21.5329 30.784 21.5358 30.7809 21.5379C30.7732 21.5425 30.7642 21.5447 30.7552 21.5441H30.7093V21.4938H30.7552Z" fill="black"/>
</svg>
