<svg width="60" height="60" viewBox="0 0 60 60" fill="none" xmlns="http://www.w3.org/2000/svg">
<path d="M30 59C46.0163 59 59 46.0163 59 30C59 13.9837 46.0163 1 30 1C13.9837 1 1 13.9837 1 30C1 46.0163 13.9837 59 30 59Z" stroke="white" stroke-width="2"/>
<path d="M41.0278 24.725C40.809 24.4474 40.6277 24.1421 40.4888 23.817C40.4036 23.4538 40.3666 23.0809 40.3788 22.708C40.4438 21.8658 40.2423 21.0244 39.8028 20.303C39.2487 19.6576 38.5056 19.2028 37.6788 19.003C37.3258 18.9015 36.9876 18.7543 36.6728 18.565C36.4008 18.3266 36.1608 18.054 35.9588 17.754C35.5135 17.0227 34.8485 16.4508 34.0588 16.12C33.2441 15.9309 32.3908 16.0008 31.6178 16.32C31.2589 16.4488 30.8847 16.5302 30.5048 16.562C30.1248 16.5303 29.7506 16.4489 29.3918 16.32C28.6189 16.0003 27.7654 15.9304 26.9508 16.12C26.161 16.4508 25.496 17.0227 25.0508 17.754C24.8491 18.0537 24.6098 18.3263 24.3388 18.565C24.023 18.7538 23.6842 18.901 23.3308 19.003C22.504 19.2031 21.761 19.6578 21.2068 20.303C20.7674 21.0249 20.5659 21.8665 20.6308 22.709C20.6429 23.0819 20.6059 23.4548 20.5208 23.818C20.3816 24.1432 20.2 24.4485 19.9808 24.726C19.4212 25.385 19.0817 26.2025 19.0098 27.064C19.0815 27.9256 19.421 28.7431 19.9808 29.402C20.1995 29.6795 20.3811 29.9845 20.5208 30.309C20.6048 30.6725 20.6418 31.0452 20.6308 31.418C20.5655 32.2608 20.7667 33.1028 21.2058 33.825C21.5046 34.2156 21.8965 34.525 22.3458 34.725L20.5678 40.167C20.5207 40.3116 20.5072 40.465 20.5284 40.6156C20.5495 40.7662 20.6047 40.91 20.6898 41.036C20.7748 41.162 20.8875 41.2669 21.0192 41.3428C21.1509 41.4187 21.2981 41.4636 21.4498 41.474L25.3138 41.742L28.5968 43.796C28.7556 43.8957 28.9392 43.9487 29.1268 43.949C29.2434 43.949 29.3591 43.9287 29.4688 43.889C29.6115 43.8368 29.7405 43.7528 29.8462 43.6436C29.9519 43.5343 30.0314 43.4025 30.0788 43.258L30.4998 41.958L30.9208 43.258C30.9682 43.4025 31.0477 43.5343 31.1533 43.6436C31.259 43.7528 31.388 43.8368 31.5308 43.889C31.6404 43.9287 31.7561 43.949 31.8728 43.949C32.0603 43.9487 32.2439 43.8957 32.4028 43.796L35.6858 41.742L39.5498 41.474C39.7014 41.4636 39.8487 41.4187 39.9804 41.3428C40.112 41.2669 40.2247 41.162 40.3098 41.036C40.3948 40.91 40.45 40.7662 40.4712 40.6156C40.4923 40.465 40.4788 40.3116 40.4318 40.167L38.6638 34.725C39.1128 34.5252 39.5045 34.2157 39.8028 33.825C40.2423 33.1033 40.4438 32.2616 40.3788 31.419C40.3668 31.0461 40.4037 30.6733 40.4888 30.31C40.6282 29.985 40.8097 29.6797 41.0288 29.402C41.5885 28.7431 41.928 27.9256 41.9998 27.064C41.928 26.202 41.5881 25.3841 41.0278 24.725ZM28.5718 41.421L26.1628 39.914C26.0237 39.827 25.8654 39.7755 25.7018 39.764L22.8658 39.564L24.1908 35.484C24.2328 35.509 24.2908 35.529 24.3268 35.555C24.5993 35.7935 24.8397 36.0665 25.0418 36.367C25.487 37.0982 26.152 37.6698 26.9418 38C27.6796 38.1861 28.4569 38.1389 29.1668 37.865L29.4438 38.72L28.5718 41.421ZM35.2978 39.764C35.1341 39.7755 34.9758 39.827 34.8368 39.914L32.4278 41.421L31.2178 37.695C31.3468 37.73 31.4758 37.765 31.6128 37.806C32.1402 37.9922 32.6921 38.1001 33.2508 38.126C33.5223 38.1275 33.7923 38.086 34.0508 38.003C34.8424 37.6729 35.5095 37.101 35.9568 36.369C36.1581 36.0694 36.3971 35.7969 36.6678 35.558C36.7048 35.532 36.7678 35.511 36.8058 35.487L38.1308 39.567L35.2978 39.764ZM39.3898 28.253C39.0529 28.6898 38.7832 29.1745 38.5898 29.691C38.4395 30.2394 38.3698 30.8066 38.3828 31.375C38.4205 31.8083 38.3544 32.2444 38.1898 32.647C37.8548 32.932 37.4563 33.1323 37.0278 33.231C36.4859 33.3912 35.9707 33.6304 35.4988 33.941C35.0631 34.2913 34.6814 34.7037 34.3658 35.165C34.0538 35.578 33.7318 36.006 33.4408 36.1C33.0144 36.1297 32.5871 36.0581 32.1938 35.891C31.6494 35.6999 31.0801 35.5894 30.5038 35.563C29.9274 35.5888 29.3579 35.6993 28.8138 35.891C28.4204 36.058 27.9931 36.1297 27.5668 36.1C27.2758 36.006 26.9538 35.578 26.6418 35.165C26.326 34.7035 25.9439 34.291 25.5078 33.941C25.0359 33.63 24.5207 33.3904 23.9788 33.23C23.5505 33.1311 23.1521 32.9312 22.8168 32.647C22.6522 32.2441 22.586 31.8077 22.6238 31.374C22.6375 30.806 22.5681 30.239 22.4178 29.691C22.2233 29.1739 21.9519 28.6891 21.6128 28.253C21.3139 27.9132 21.1046 27.5042 21.0038 27.063C21.105 26.622 21.3143 26.2131 21.6128 25.873C21.9519 25.4369 22.2233 24.9522 22.4178 24.435C22.568 23.8867 22.6377 23.3194 22.6248 22.751C22.5871 22.3177 22.6533 21.8817 22.8178 21.479C23.1529 21.1944 23.5514 20.9942 23.9798 20.895C24.5217 20.7353 25.037 20.496 25.5088 20.185C25.9432 19.8347 26.3236 19.4223 26.6378 18.961C26.9498 18.548 27.2718 18.12 27.5628 18.026C27.9891 17.9969 28.4162 18.0685 28.8098 18.235C29.3539 18.4268 29.9234 18.5373 30.4998 18.563C31.0764 18.537 31.6462 18.4265 32.1908 18.235C32.5839 18.0685 33.0108 17.9969 33.4368 18.026C33.7278 18.12 34.0498 18.548 34.3618 18.961C34.6772 19.4228 35.0594 19.8353 35.4958 20.185C35.9673 20.4959 36.4822 20.7355 37.0238 20.896C37.4524 20.9946 37.851 21.1949 38.1858 21.48C38.3504 21.8826 38.4165 22.3187 38.3788 22.752C38.3658 23.3201 38.4355 23.887 38.5858 24.435C38.779 24.9517 39.0487 25.4364 39.3858 25.873C39.6847 26.2129 39.8943 26.6219 39.9958 27.063C39.8957 27.5039 39.6874 27.9128 39.3898 28.253V28.253Z" fill="white"/>
<path d="M30.5 20.0625C28.6441 20.0646 26.8649 20.8028 25.5526 22.1151C24.2403 23.4274 23.5021 25.2066 23.5 27.0625C23.5021 28.9184 24.2403 30.6976 25.5526 32.0099C26.8649 33.3222 28.6441 34.0604 30.5 34.0625C32.3559 34.0604 34.1351 33.3222 35.4474 32.0099C36.7597 30.6976 37.4979 28.9184 37.5 27.0625C37.4979 25.2066 36.7597 23.4274 35.4474 22.1151C34.1351 20.8028 32.3559 20.0646 30.5 20.0625ZM30.5 32.0625C29.6904 32.0618 28.893 31.8643 28.1767 31.487C27.4603 31.1097 26.8465 30.5638 26.388 29.8965L31.871 24.4145C32.0585 24.227 32.1638 23.9727 32.1638 23.7075C32.1638 23.4423 32.0585 23.188 31.871 23.0005C31.6835 22.813 31.4292 22.7077 31.164 22.7077C30.8988 22.7077 30.6445 22.813 30.457 23.0005L25.582 27.8755C25.5323 27.6072 25.5049 27.3353 25.5 27.0625C25.5016 25.7369 26.0289 24.4661 26.9662 23.5287C27.9036 22.5914 29.1744 22.0641 30.5 22.0625C31.3097 22.0636 32.1069 22.2614 32.8231 22.6391C33.5392 23.0168 34.1528 23.563 34.611 24.2305L29.128 29.7105C28.9405 29.898 28.8352 30.1523 28.8352 30.4175C28.8352 30.6827 28.9405 30.937 29.128 31.1245C29.3155 31.312 29.5698 31.4174 29.835 31.4175C29.9664 31.4179 30.0965 31.3921 30.2179 31.3418C30.3392 31.2916 30.4494 31.2177 30.542 31.1245L35.418 26.2505C35.4672 26.5185 35.4946 26.7901 35.5 27.0625C35.4984 28.3881 34.9711 29.6589 34.0338 30.5963C33.0964 31.5336 31.8256 32.0609 30.5 32.0625V32.0625Z" fill="white"/>
</svg>
