<svg width="60" height="60" viewBox="0 0 60 60" fill="none" xmlns="http://www.w3.org/2000/svg">
<path d="M30.005 43.3353C28.1496 43.3357 26.3151 42.9434 24.622 42.1843C21.934 40.9761 19.728 38.9026 18.356 36.2944C16.984 33.6863 16.5249 30.6938 17.052 27.7943L16.595 28.1293C16.4891 28.2073 16.3688 28.2637 16.2411 28.2952C16.1134 28.3267 15.9807 28.3327 15.8506 28.3128C15.7206 28.2929 15.5957 28.2476 15.4832 28.1794C15.3707 28.1111 15.2728 28.0214 15.195 27.9153C15.117 27.8094 15.0606 27.6891 15.0291 27.5614C14.9976 27.4336 14.9916 27.3009 15.0115 27.1709C15.0314 27.0408 15.0767 26.9159 15.1449 26.8034C15.2131 26.6909 15.3029 26.593 15.409 26.5153L18.309 24.3883C18.487 24.2576 18.7031 24.1895 18.9238 24.1946C19.1445 24.1997 19.3573 24.2776 19.529 24.4163C19.7009 24.5549 19.8221 24.7465 19.8737 24.9612C19.9252 25.176 19.9042 25.4017 19.814 25.6033C18.607 28.3063 18.5215 31.3776 19.5762 34.1436C20.631 36.9095 22.7398 39.1442 25.44 40.3573C27.1085 41.1056 28.9353 41.4326 30.7597 41.3093C32.5842 41.186 34.3504 40.6163 35.903 39.6503C36.1283 39.5104 36.4 39.4657 36.6582 39.5261C36.9164 39.5865 37.1401 39.747 37.28 39.9723C37.4199 40.1976 37.4646 40.4692 37.4042 40.7275C37.3438 40.9857 37.1833 41.2094 36.958 41.3493C34.8709 42.6467 32.4625 43.3346 30.005 43.3353V43.3353Z" fill="white"/>
<path d="M41.1071 36.1408C40.8786 36.1407 40.657 36.0624 40.4791 35.9188C40.3072 35.7802 40.1861 35.5886 40.1345 35.3738C40.0829 35.1591 40.1039 34.9333 40.1941 34.7318C41.4011 32.0288 41.4866 28.9574 40.4319 26.1915C39.3772 23.4255 37.2684 21.1909 34.5681 19.9778C32.8947 19.2269 31.062 18.9003 29.2322 19.027C27.4024 19.1536 25.6321 19.7296 24.0781 20.7038C23.9668 20.7734 23.8428 20.8204 23.7133 20.8421C23.5838 20.8638 23.4512 20.8597 23.3233 20.8302C23.1953 20.8007 23.0744 20.7462 22.9675 20.67C22.8606 20.5937 22.7697 20.4971 22.7001 20.3858C22.5595 20.161 22.5139 19.8896 22.5733 19.6312C22.6328 19.3727 22.7924 19.1485 23.0171 19.0078C24.8496 17.8593 26.9371 17.1804 29.0946 17.0313C31.2521 16.8822 33.4131 17.2674 35.3861 18.1528C38.074 19.3611 40.2799 21.4346 41.6519 24.0427C43.0239 26.6509 43.4831 29.6433 42.9561 32.5428L43.4121 32.2078C43.518 32.1297 43.6383 32.0733 43.7661 32.0418C43.8938 32.0103 44.0265 32.0044 44.1566 32.0242C44.2866 32.0441 44.4115 32.0895 44.524 32.1577C44.6365 32.2259 44.7344 32.3157 44.8121 32.4218C44.8902 32.5277 44.9466 32.648 44.9781 32.7757C45.0096 32.9034 45.0156 33.0361 44.9957 33.1662C44.9758 33.2963 44.9305 33.4211 44.8622 33.5336C44.794 33.6461 44.7043 33.744 44.5981 33.8218L41.6981 35.9488C41.5265 36.0739 41.3195 36.1412 41.1071 36.1408V36.1408Z" fill="white"/>
<path d="M25.5 36.168H24C23.7348 36.168 23.4804 36.0626 23.2929 35.8751C23.1054 35.6875 23 35.4332 23 35.168C23 34.9027 23.1054 34.6484 23.2929 34.4609C23.4804 34.2733 23.7348 34.168 24 34.168H25.5C25.8978 34.168 26.2794 34.0099 26.5607 33.7286C26.842 33.4473 27 33.0658 27 32.668C27 32.2701 26.842 31.8886 26.5607 31.6073C26.2794 31.326 25.8978 31.168 25.5 31.168C25.2348 31.168 24.9804 31.0626 24.7929 30.8751C24.6054 30.6875 24.5 30.4332 24.5 30.168C24.5 29.9027 24.6054 29.6484 24.7929 29.4609C24.9804 29.2733 25.2348 29.168 25.5 29.168C25.8978 29.168 26.2794 29.0099 26.5607 28.7286C26.842 28.4473 27 28.0658 27 27.668C27 27.2701 26.842 26.8886 26.5607 26.6073C26.2794 26.326 25.8978 26.168 25.5 26.168H24C23.7348 26.168 23.4804 26.0626 23.2929 25.8751C23.1054 25.6875 23 25.4332 23 25.168C23 24.9028 23.1054 24.6484 23.2929 24.4609C23.4804 24.2733 23.7348 24.168 24 24.168H25.5C26.4283 24.168 27.3185 24.5367 27.9749 25.1931C28.6313 25.8495 29 26.7397 29 27.668C29.0004 28.1339 28.9074 28.5952 28.7266 29.0246C28.5457 29.4539 28.2806 29.8427 27.947 30.168C28.2806 30.4932 28.5456 30.882 28.7265 31.3114C28.9074 31.7408 29.0003 32.202 29 32.668C29 33.5962 28.6313 34.4865 27.9749 35.1428C27.3185 35.7992 26.4283 36.168 25.5 36.168Z" fill="white"/>
<path d="M33.5303 36.168C32.602 36.168 31.7118 35.7992 31.0554 35.1428C30.399 34.4865 30.0303 33.5962 30.0303 32.668V27.668C30.0303 26.7397 30.399 25.8495 31.0554 25.1931C31.7118 24.5367 32.602 24.168 33.5303 24.168C34.4585 24.168 35.3488 24.5367 36.0051 25.1931C36.6615 25.8495 37.0303 26.7397 37.0303 27.668V32.668C37.0303 33.5962 36.6615 34.4865 36.0051 35.1428C35.3488 35.7992 34.4585 36.168 33.5303 36.168V36.168ZM33.5303 26.168C33.1324 26.168 32.7509 26.326 32.4696 26.6073C32.1883 26.8886 32.0303 27.2701 32.0303 27.668V32.668C32.0303 33.0658 32.1883 33.4473 32.4696 33.7286C32.7509 34.0099 33.1324 34.168 33.5303 34.168C33.9281 34.168 34.3096 34.0099 34.5909 33.7286C34.8722 33.4473 35.0303 33.0658 35.0303 32.668V27.668C35.0303 27.2701 34.8722 26.8886 34.5909 26.6073C34.3096 26.326 33.9281 26.168 33.5303 26.168V26.168Z" fill="white"/>
<path d="M30 59C46.0163 59 59 46.0163 59 30C59 13.9837 46.0163 1 30 1C13.9837 1 1 13.9837 1 30C1 46.0163 13.9837 59 30 59Z" stroke="white" stroke-width="2"/>
</svg>
