<svg width="185" height="47" viewBox="0 0 185 47" fill="none" xmlns="http://www.w3.org/2000/svg">
<path d="M103.151 12.0681H96.1558V6.68896H103.151V12.0681ZM89.4814 46.0726H96.1558V18.7415H103.151V46.0726H109.826V0.0146484H89.4814V46.0726V46.0726Z" fill="white"/>
<path d="M114.295 17.5322L127.966 18.7034V39.3239H120.969V24.573H114.295V45.9992H134.641V12.5762L120.969 11.4059V6.68808H127.966V8.61627H134.641V0.0146484H114.295V17.5322Z" fill="white"/>
<path d="M178.095 39.3522H171.099V6.71719H178.095V39.3522ZM164.424 46.0265H184.77V0.0419922H164.424V46.0265Z" fill="white"/>
<path d="M139.384 45.9845H159.73V36.286H153.055V39.3102H146.059V6.67343H153.055V22.1123H159.73V0H139.384V45.9845Z" fill="white"/>
<path d="M78.2959 28.2523L74.6891 35.4596L71.2993 28.2922V0.0146484H64.625V29.7901L72.2723 45.9584H76.9015L84.9693 29.8291V0.0146484H78.2959V28.2523Z" fill="white"/>
<path d="M27.2551 18.9921C28.4653 11.1173 33.0744 4.16899 39.8592 0H6.38571C13.1705 4.16899 17.7796 11.1173 18.9898 18.9921C11.1106 17.7697 4.17131 13.1632 0 6.36929V39.8242C4.17131 33.0431 11.1235 28.4366 19.0026 27.2271C17.8053 35.1147 13.1963 42.0759 6.39858 46.2578H39.8721C33.0872 42.0888 28.4782 35.1405 27.268 27.2657C35.1343 28.4624 42.0736 33.056 46.2578 39.8242V6.36929C42.0865 13.1503 35.1343 17.7568 27.2551 18.9663" fill="#E2231A"/>
</svg>
