<svg width="38" height="25" viewBox="0 0 38 25" fill="none" xmlns="http://www.w3.org/2000/svg">
<path d="M36.2331 0H2.65775C1.68179 0 0.890625 0.791168 0.890625 1.76712V22.9726C0.890625 23.9486 1.68179 24.7397 2.65775 24.7397H36.2331C37.209 24.7397 38.0002 23.9486 38.0002 22.9726V1.76712C38.0002 0.791168 37.209 0 36.2331 0Z" fill="white"/>
<path d="M16.4129 7.25977L14.3101 16.9463H16.8591L18.8984 7.25977H16.4129Z" fill="#254194"/>
<path d="M12.718 7.26199L10.1054 13.8259L9.02213 8.21798C8.9762 7.9478 8.83521 7.70296 8.62457 7.52764C8.41393 7.35233 8.14759 7.25812 7.87356 7.26199H3.60416L3.54053 7.51734C4.39822 7.69678 5.23224 7.97488 6.02598 8.34611C6.40856 8.53696 6.4678 8.72868 6.59945 9.17488L8.57506 16.8857H11.2514L15.3299 7.19922H12.7172L12.718 7.26199Z" fill="#254194"/>
<path d="M32.5361 7.25978H30.3696C30.1387 7.25004 29.9106 7.31224 29.7165 7.43775C29.5225 7.56325 29.3722 7.7459 29.2864 7.96047L25.5269 16.9454H28.1396L28.6493 15.4795H31.8355L32.1544 16.9454H34.4517L32.5361 7.25978ZM29.4772 13.5048L30.8158 9.8725L31.5801 13.5048H29.4772Z" fill="#254194"/>
<path d="M22.2129 9.93649C22.2129 9.61752 22.5319 9.23581 23.2962 9.10858C24.1494 9.02749 25.0086 9.18022 25.7816 9.55036L26.2234 7.51112C25.4667 7.23626 24.6701 7.08703 23.8652 7.06934C21.3798 7.06934 19.6595 8.40795 19.6595 10.2555C19.6595 11.6577 20.9335 12.4219 21.8259 12.8681C22.7819 13.3099 23.1008 13.6324 23.1008 14.0786C23.1008 14.7157 22.3366 15.0347 21.5714 15.0347C20.6788 15.0658 19.7954 14.845 19.0223 14.3976L18.5806 16.5005C19.4748 16.8461 20.4264 17.0191 21.3851 17.0103C23.9977 17.0103 25.7144 15.7353 25.7144 13.6969C25.7171 11.2742 22.1492 11.0834 22.2129 9.93649Z" fill="#254194"/>
</svg>
