<svg width="44" height="56" viewBox="0 0 44 56" fill="none" xmlns="http://www.w3.org/2000/svg">
<mask id="path-1-inside-1_728_23" fill="white">
<path d="M44 23.5139V12.4066L43.324 12.5957C43.2639 12.6128 37.2253 14.3262 34.6867 11.6501C31.7706 8.58251 34.1365 2.74799 34.1609 2.68936L34.3618 2.19574L33.8661 1.99338C32.1161 1.33522 30.3041 0.852955 28.4584 0.554137C26.3253 0.206147 24.1697 0.0208038 22.0085 0C19.8435 0.0189125 17.6842 0.204255 15.5474 0.554137C13.7016 0.852955 11.8915 1.33522 10.1396 1.99338L9.64394 2.19574L9.85048 2.69314C9.8749 2.75177 12.2464 8.58061 9.32285 11.6539C6.78047 14.33 0.738065 12.6203 0.685489 12.5995L0.000133184 12.4066V23.5064C0.000133184 23.9678 -0.105017 34.905 5.59377 42.9428C13.0576 53.4714 21.5053 55.8657 21.8602 55.9622L21.9991 56L22.1362 55.9622C22.493 55.8657 30.9407 53.4714 38.4026 42.9428C44.1033 34.905 44.0056 23.9678 43.9981 23.5139"/>
</mask>
<path d="M44 23.5139V12.4066L43.324 12.5957C43.2639 12.6128 37.2253 14.3262 34.6867 11.6501C31.7706 8.58251 34.1365 2.74799 34.1609 2.68936L34.3618 2.19574L33.8661 1.99338C32.1161 1.33522 30.3041 0.852955 28.4584 0.554137C26.3253 0.206147 24.1697 0.0208038 22.0085 0C19.8435 0.0189125 17.6842 0.204255 15.5474 0.554137C13.7016 0.852955 11.8915 1.33522 10.1396 1.99338L9.64394 2.19574L9.85048 2.69314C9.8749 2.75177 12.2464 8.58061 9.32285 11.6539C6.78047 14.33 0.738065 12.6203 0.685489 12.5995L0.000133184 12.4066V23.5064C0.000133184 23.9678 -0.105017 34.905 5.59377 42.9428C13.0576 53.4714 21.5053 55.8657 21.8602 55.9622L21.9991 56L22.1362 55.9622C22.493 55.8657 30.9407 53.4714 38.4026 42.9428C44.1033 34.905 44.0056 23.9678 43.9981 23.5139" fill="black"/>
<path d="M44 12.4066H45V11.0884L43.7306 11.4436L44 12.4066ZM43.324 12.5957L43.0546 11.6327L43.0515 11.6336L43.324 12.5957ZM34.6867 11.6501L35.4122 10.9619L35.4114 10.9611L34.6867 11.6501ZM34.1609 2.68936L35.0841 3.07374L35.0871 3.06635L34.1609 2.68936ZM34.3618 2.19574L35.288 2.57274L35.6646 1.64748L34.7398 1.26992L34.3618 2.19574ZM33.8661 1.99338L34.2441 1.06755L34.2312 1.06229L34.2181 1.05739L33.8661 1.99338ZM28.4584 0.554137L28.2974 1.54109L28.2986 1.54128L28.4584 0.554137ZM22.0085 0L22.0181 -0.999954L22.009 -1.00004L21.9998 -0.999962L22.0085 0ZM15.5474 0.554137L15.7072 1.54129L15.709 1.541L15.5474 0.554137ZM10.1396 1.99338L9.78796 1.05726L9.77476 1.06222L9.7617 1.06755L10.1396 1.99338ZM9.64394 2.19574L9.26599 1.26992L8.33459 1.65014L8.7204 2.57925L9.64394 2.19574ZM9.85048 2.69314L8.92694 3.07664L8.9273 3.07751L9.85048 2.69314ZM9.32285 11.6539L8.59832 10.9647L8.59787 10.9651L9.32285 11.6539ZM0.685489 12.5995L1.05343 11.6697L1.00577 11.6508L0.956433 11.6369L0.685489 12.5995ZM0.000133184 12.4066L0.271077 11.444L-0.999867 11.0863V12.4066H0.000133184ZM5.59377 42.9428L6.40957 42.3645L6.40954 42.3644L5.59377 42.9428ZM21.8602 55.9622L22.1229 54.9973L22.1225 54.9972L21.8602 55.9622ZM21.9991 56L21.7365 56.9649L22.0009 57.0369L22.2652 56.964L21.9991 56ZM22.1362 55.9622L21.8752 54.9968L21.8702 54.9982L22.1362 55.9622ZM38.4026 42.9428L37.5869 42.3643L37.5867 42.3646L38.4026 42.9428ZM45 23.5139V12.4066H43V23.5139H45ZM43.7306 11.4436L43.0546 11.6327L43.5935 13.5588L44.2694 13.3696L43.7306 11.4436ZM43.0515 11.6336C43.0483 11.6345 41.607 12.044 39.8826 12.1342C38.0841 12.2283 36.3533 11.954 35.4122 10.9619L33.9612 12.3383C35.5587 14.0224 38.1166 14.2294 39.9871 14.1315C41.9316 14.0298 43.5397 13.574 43.5966 13.5579L43.0515 11.6336ZM35.4114 10.9611C34.2724 9.76286 34.0939 7.93029 34.3135 6.16479C34.5278 4.44113 35.0892 3.06154 35.0841 3.07373L33.2377 2.305C33.2082 2.37582 32.5744 3.94279 32.3288 5.91795C32.0883 7.85127 32.1849 10.4698 33.9619 12.3391L35.4114 10.9611ZM35.0871 3.06635L35.288 2.57274L33.4356 1.81875L33.2347 2.31237L35.0871 3.06635ZM34.7398 1.26992L34.2441 1.06755L33.4882 2.91921L33.9839 3.12157L34.7398 1.26992ZM34.2181 1.05739C32.4059 0.375837 30.5296 -0.123569 28.6182 -0.43301L28.2986 1.54128C30.0787 1.82948 31.8263 2.29461 33.5141 2.92937L34.2181 1.05739ZM28.6194 -0.432815C26.4363 -0.788962 24.2301 -0.978661 22.0181 -0.999954L21.9989 0.999954C24.1093 1.02027 26.2143 1.20125 28.2974 1.54109L28.6194 -0.432815ZM21.9998 -0.999962C19.7835 -0.980601 17.5731 -0.790867 15.3858 -0.432721L15.709 1.541C17.7953 1.19938 19.9036 1.01843 22.0173 0.999962L21.9998 -0.999962ZM15.3876 -0.43301C13.476 -0.123537 11.6016 0.37589 9.78796 1.05726L10.4913 2.9295C12.1814 2.29456 13.9273 1.82945 15.7072 1.54128L15.3876 -0.43301ZM9.7617 1.06755L9.26599 1.26992L10.0219 3.12157L10.5176 2.91921L9.7617 1.06755ZM8.7204 2.57925L8.92694 3.07664L10.774 2.30964L10.5675 1.81224L8.7204 2.57925ZM8.9273 3.07751C8.9227 3.06645 9.48511 4.44439 9.69984 6.16674C9.91974 7.9305 9.74116 9.76329 8.59832 10.9647L10.0474 12.3431C11.8281 10.4712 11.9256 7.85295 11.6845 5.91931C11.4382 3.94427 10.8027 2.37847 10.7737 2.30878L8.9273 3.07751ZM8.59787 10.9651C7.65461 11.958 5.9211 12.233 4.12247 12.1394C3.26567 12.0948 2.47525 11.9709 1.89381 11.8559C1.60425 11.7986 1.36969 11.7441 1.20846 11.7041C1.12783 11.6841 1.06627 11.6678 1.02606 11.6569C1.00578 11.6514 0.992033 11.6475 0.98472 11.6454C0.94353 11.6335 0.998031 11.6478 1.05343 11.6697L0.317552 13.5294C0.33989 13.5382 0.357786 13.5443 0.363035 13.5461C0.370978 13.5488 0.377556 13.551 0.38165 13.5523C0.389928 13.555 0.3971 13.5572 0.401756 13.5586C0.411527 13.5615 0.421509 13.5645 0.430634 13.5671C0.449425 13.5725 0.472901 13.5791 0.500391 13.5866C0.55571 13.6016 0.631836 13.6217 0.726426 13.6452C0.915638 13.6921 1.18162 13.7538 1.50565 13.8179C2.1514 13.9456 3.04034 14.0858 4.01851 14.1367C5.88983 14.2341 8.44872 14.0259 10.0478 12.3427L8.59787 10.9651ZM0.956433 11.6369L0.271077 11.444L-0.27081 13.3692L0.414546 13.5621L0.956433 11.6369ZM-0.999867 12.4066V23.5064H1.00013V12.4066H-0.999867ZM-0.999867 23.5064C-0.999867 23.9574 -1.12393 35.1968 4.778 43.5212L6.40954 42.3644C0.913894 34.6131 1.00013 23.9783 1.00013 23.5064H-0.999867ZM4.77796 43.5211C12.4154 54.2947 21.0956 56.7906 21.5979 56.9272L22.1225 54.9972C21.915 54.9408 13.6997 52.6481 6.40957 42.3645L4.77796 43.5211ZM21.5975 56.9271L21.7365 56.9649L22.2618 55.0351L22.1229 54.9973L21.5975 56.9271ZM22.2652 56.964L22.4022 56.9261L21.8702 54.9982L21.7331 55.036L22.2652 56.964ZM22.3972 56.9275C22.9028 56.7908 31.583 54.2944 39.2185 43.521L37.5867 42.3646C30.2983 52.6483 22.0831 54.9406 21.8752 54.9968L22.3972 56.9275ZM39.2183 43.5213C42.1865 39.3362 43.6242 34.4329 44.3249 30.5626C45.0274 26.6827 45.0024 23.7657 44.998 23.4974L42.9983 23.5305C43.0013 23.7161 43.0289 26.4946 42.3569 30.2062C41.6832 33.9273 40.3194 38.5115 37.5869 42.3643L39.2183 43.5213Z" fill="#363636" mask="url(#path-1-inside-1_728_23)"/>
</svg>
