<svg width="168" height="212" viewBox="0 0 168 212" fill="none" xmlns="http://www.w3.org/2000/svg">
<path d="M168.001 89.0171V46.9679L165.42 47.6839C165.19 47.7483 142.133 54.2351 132.44 44.104C121.306 32.4909 130.34 10.4031 130.433 10.1812L131.2 8.31246L129.307 7.54637C122.626 5.05478 115.707 3.22904 108.66 2.0978C100.515 0.780412 92.2847 0.0787572 84.0328 0C75.7665 0.0715974 67.5217 0.773252 59.3629 2.0978C52.3155 3.22904 45.4042 5.05478 38.7151 7.54637L36.8224 8.31246L37.6111 10.1955C37.7043 10.4174 46.7592 32.4838 35.5965 44.1183C25.8891 54.2494 2.81807 47.777 2.61733 47.6982L0.000508523 46.9679V88.9885C0.000508523 90.7354 -0.400976 132.14 21.3581 162.569C49.8564 202.427 82.1114 211.492 83.4664 211.857L83.9969 212L84.5203 211.857C85.8825 211.492 118.137 202.427 146.629 162.569C168.395 132.14 168.022 90.7354 167.993 89.0171" fill="black"/>
<path d="M163.957 52.2661C157.167 53.7911 138.864 56.7266 129.486 46.9464C124.031 41.2544 121.88 32.7916 123.156 22.4458C123.672 18.4148 124.604 14.4484 125.923 10.6107C120.08 8.61316 114.087 7.0953 108 6.07145C100.078 4.79702 92.0695 4.124 84.0398 4.03809C76.0029 4.124 67.9804 4.80418 60.0439 6.07145C53.9427 7.0953 47.9348 8.61316 42.0774 10.6107C43.4037 14.4484 44.3357 18.4148 44.8519 22.4458C46.1353 32.7916 43.9414 41.2544 38.5214 46.9106C29.1438 56.6908 10.8332 53.7553 4.04385 52.2661V89.0529C4.04385 89.4968 3.68538 130.93 24.6558 160.264C39.1308 180.468 54.7027 192.389 65.2417 198.826C74.8988 204.74 82.0825 207.196 84.0326 207.804C85.997 207.189 93.2811 204.69 102.981 198.733C113.449 192.289 128.956 180.397 143.381 160.228C164.373 130.873 163.993 89.461 163.985 89.0457L163.957 52.2661V52.2661ZM9.32051 89.1245V58.5166C18.8701 59.8053 33.4168 59.8196 42.2996 50.5406C52.8458 39.5432 50.9029 23.4124 48.5657 14.0259C52.6379 12.8732 56.7674 11.9424 60.94 11.2479C68.5754 10.038 76.2825 9.38641 84.0111 9.30766C91.7397 9.39357 99.4539 10.0523 107.082 11.2694C111.24 11.9782 115.363 12.9162 119.421 14.076C117.987 19.8038 116.696 28.0662 118.345 36.1352L17.9739 136.372C9.12694 112.852 9.32051 89.4252 9.32051 89.1245ZM139.086 157.178C116.524 188.724 91.0514 199.7 83.9967 202.284C78.3831 200.287 61.2555 193.034 43.0524 174.182L158.702 58.6454V89.1173C158.702 89.5183 158.996 129.312 139.072 157.178" fill="white"/>
<path d="M117.234 102.657V102.385H117.198L117.234 102.657Z" fill="white"/>
<path d="M49.168 129.269L49.2683 129.212H49.2038V129.248" fill="white"/>
<path d="M75.8527 183.92C73.7018 182.28 72.5619 180.154 72.5619 177.927C72.5691 176.731 72.8989 175.557 73.5154 174.526L71.8378 170.56C69.9307 172.543 68.8553 175.178 68.8267 177.927C68.8267 181.342 70.5115 184.514 73.5728 186.869C75.487 188.316 77.6808 189.332 80.0252 189.855L78.0752 185.259C77.2865 184.893 76.5409 184.442 75.8527 183.92Z" fill="white"/>
<path d="M93.7328 162.898L92.8008 165.096C94.0052 165.418 95.1882 165.826 96.3353 166.321L97.8767 162.683C98.2782 161.681 99.0238 160.858 99.9773 160.356H93.2023C93.8977 160.972 94.1128 161.96 93.7471 162.812C93.7471 162.841 93.7328 162.87 93.7328 162.898Z" fill="white"/>
<path d="M89.6176 182.244H85.5597L84.0255 185.867L74.2751 162.877V162.827C73.9095 161.975 74.1246 160.987 74.82 160.371H68.0234C68.977 160.872 69.7226 161.696 70.1241 162.698L84.004 195.461L89.6176 182.244V182.244Z" fill="white"/>
<path d="M95.7548 167.696C94.6077 167.202 93.4248 166.801 92.2132 166.486C91.7328 166.357 91.2381 166.243 90.7434 166.135C88.6571 165.713 86.5422 165.498 84.4129 165.505H84.2336C81.9394 165.519 79.6739 165.942 77.5303 166.765L78.9641 170.202C80.6991 169.557 82.5417 169.228 84.3914 169.235H84.4917C86.0833 169.235 87.6678 169.378 89.2307 169.651C89.7397 169.736 90.2344 169.837 90.7219 169.958C91.9479 170.245 93.1452 170.631 94.3066 171.125C94.5145 171.211 94.9304 171.405 94.9375 171.412C95.2028 171.541 95.4465 171.705 95.6545 171.913C96.0775 172.335 96.3499 172.887 96.4144 173.481V173.56L97.0597 172.622L99.2105 169.557C98.5509 169.106 97.8626 168.691 97.1529 168.333C96.6725 168.104 96.2208 167.889 95.7548 167.696V167.696Z" fill="white"/>
<path d="M92.0335 171.87C91.4241 171.67 90.8004 171.498 90.1551 171.354L88.3843 175.521H92.435L93.7183 172.5C93.2021 172.271 92.6142 172.056 92.0335 171.87Z" fill="white"/>
<path d="M83.6888 180.748H95.296V184.263C93.4821 185.158 91.5536 185.795 89.5605 186.153L87.8613 190.17C91.8188 189.819 95.633 188.538 98.9954 186.418H99.0384V177.018H82.0972L83.6888 180.748V180.748Z" fill="white"/>
<path d="M46.0707 91.2582C44.7659 92.1316 43.3607 92.8548 41.891 93.4061L39.9409 90.2128C40.5431 90.0052 41.7763 89.4969 41.8767 89.4181H41.9125C42.1419 89.2964 42.3427 89.146 42.5219 88.9599C42.9592 88.5303 43.2317 87.9575 43.289 87.3489C43.289 87.3203 43.289 87.2845 43.289 87.2559L46.0707 91.2582Z" fill="white"/>
<path d="M31.3736 91.5799H31.3162C30.3197 91.5799 29.3231 91.4868 28.3409 91.3007C27.8319 91.2004 27.33 91.0787 26.8425 90.9355C25.509 90.5346 24.2472 89.926 23.1073 89.1313L22.756 88.8735C22.3545 88.5585 21.9673 88.2148 21.616 87.8497C18.8702 85.2578 18.7483 80.9334 21.3436 78.1912C21.4296 78.0981 21.5228 78.005 21.616 77.9191V73.1436C21.2217 73.3941 20.8417 73.6591 20.4761 73.9383C17.4148 76.2938 15.73 79.4728 15.73 82.8808C15.73 86.2888 17.4148 89.4749 20.4761 91.8305C20.8417 92.1097 21.193 92.3746 21.616 92.6181C22.0964 92.9259 22.5982 93.2051 23.1073 93.4629C24.2974 94.0428 25.552 94.4939 26.8425 94.7946C27.3372 94.9092 27.8319 95.0094 28.3409 95.081C29.3088 95.2314 30.2838 95.303 31.266 95.3101H31.3234C32.5637 95.3101 33.8111 95.2385 35.0443 95.0953L32.8935 91.5155C32.406 91.5584 31.8898 91.5727 31.3736 91.5799Z" fill="white"/>
<path d="M23.1072 95.1104V96.6569C23.1431 98.1604 22.3616 99.5709 21.064 100.337H28.8141C27.5594 99.5566 26.8066 98.1747 26.8425 96.6998V96.6067V96.3132C25.5592 96.034 24.3117 95.633 23.1072 95.1104V95.1104Z" fill="white"/>
<path d="M42.1563 96.7997C42.1563 96.7997 36.8079 87.8501 36.5642 87.442C35.9906 86.3823 35.1948 85.4516 34.227 84.7213C37.3098 83.3609 39.4893 80.5328 40.0198 77.2107C38.844 76.7596 37.6324 76.4088 36.3921 76.1725C36.0336 79.2584 33.7251 81.6497 30.929 81.6497H26.8425V69.0271H29.6601C30.1332 69.0271 30.6064 68.9698 31.0939 68.9627H31.3234C33.7896 68.9627 36.2416 69.2347 38.6433 69.786C37.0374 67.0439 34.1123 65.3398 30.9362 65.2969H21.0425C22.3545 66.0558 23.1503 67.4734 23.1073 68.9913V87.1842C23.2865 87.3417 23.4729 87.4992 23.6736 87.6568C24.6343 88.3799 25.7026 88.9455 26.8425 89.325V85.3442H28.6779C29.3016 85.3442 29.9253 85.4659 30.5061 85.7021C31.18 86.0816 31.7535 86.6186 32.1622 87.2773L39.941 100.315H46.2715C44.5365 99.6493 43.0811 98.4107 42.1563 96.7997V96.7997Z" fill="white"/>
<path d="M46.078 74.5114L43.3034 78.5065C43.2461 77.8908 42.9737 77.318 42.5363 76.8813C42.3427 76.6808 42.1205 76.5161 41.8696 76.3944L41.6473 76.2799C41.1813 76.0579 40.6866 75.8574 40.2134 75.6713C38.9875 75.2274 37.7328 74.8837 36.4495 74.6474C35.9405 74.5544 35.4315 74.4756 34.9081 74.4112C33.761 74.268 32.6067 74.1964 31.4525 74.1892H31.3521C30.3484 74.1892 29.3518 74.2823 28.3696 74.4684V70.6809C28.8213 70.6165 29.2801 70.5592 29.739 70.5234C30.1978 70.4876 30.6925 70.459 31.1729 70.459H31.3521C32.4418 70.459 33.5316 70.5163 34.6213 70.6237C36.2775 70.7955 37.9264 71.1034 39.5323 71.5401C40.1274 71.7048 40.7081 71.8909 41.2817 72.0914C42.9808 72.6857 44.5939 73.5019 46.078 74.5114V74.5114Z" fill="white"/>
<path d="M108.975 133.243C110.129 131.36 111.126 129.391 111.957 127.351C118.804 122.926 124.977 115.107 128.117 105.155C131.092 95.1889 130.935 84.5496 127.658 74.6763H118.467C119.543 72.872 120.403 70.9461 121.034 68.9485C121.213 68.3757 121.364 67.8101 121.5 67.2373C122.855 61.5095 122.267 55.9249 118.804 51.6219C115.564 47.591 110.437 45.5361 105.182 44.9347C105.433 42.887 105.075 40.8107 104.157 38.9635C103.017 36.5005 101.06 34.503 98.6151 33.3073L98.2997 33.1426C95.1667 31.6677 91.7612 30.8658 88.2984 30.7871V18.2002C88.2984 16.7826 87.1441 15.6299 85.7246 15.6299C84.3051 15.6299 83.1508 16.7826 83.1508 18.2002C83.1508 18.3148 83.1508 18.4293 83.1508 18.5439C81.595 18.7945 80.0679 19.2026 78.5982 19.7611C76.6266 20.5057 74.7626 21.508 73.0563 22.7467V24.7442C72.3967 25.1094 71.773 25.4602 71.1708 25.9113C69.8803 26.7919 64.7183 30.4434 62.6894 35.6557C64.5176 34.6748 66.4246 33.8586 68.389 33.1999C72.9488 31.6033 77.7092 30.9374 79.731 31.3527C75.1498 32.1188 70.6832 33.4505 66.4318 35.312C66.4318 35.312 62.5101 37.1736 62.2951 37.2881C62.4958 37.417 62.6966 37.553 62.8901 37.7034C63.1411 37.9038 63.3848 38.1186 63.6071 38.3477C65.7077 40.4957 66.7042 43.4813 66.3171 46.4526C66.0805 48.7151 65.3205 50.8988 64.1018 52.8247C63.6501 53.555 63.1411 54.2495 62.5818 54.9082H55.7136C56.8607 55.8963 57.8501 57.0633 58.6243 58.3664C58.6243 58.438 58.7032 58.5024 58.7462 58.5812C59.5779 60.0274 60.1873 61.5954 60.5529 63.2279C60.9257 64.9032 61.0548 66.6216 60.9401 68.3328H45.7195C46.2213 68.8769 46.6802 69.4712 47.0816 70.094C48.5299 72.4138 49.6124 74.9484 50.2792 77.6046C50.7237 79.2227 51.075 80.8695 51.3403 82.5305C52.1146 87.6354 52.301 92.8048 51.8851 97.9526C51.0105 109.602 47.5835 119.589 43.1528 124.694C47.6194 122.138 52.2436 119.869 57.0041 117.907C55.1042 122.117 52.4945 125.969 49.2898 129.291C53.362 127.179 57.5418 125.281 61.8075 123.606C62.2449 131.145 65.6432 137.582 70.461 140.861C69.9878 140.746 69.5146 140.632 69.0701 140.489C68.5969 140.345 68.1309 140.181 67.6793 139.987C67.3208 139.844 66.9695 139.687 66.6325 139.508C65.1987 142.128 62.4528 143.753 59.4632 143.761C57.6421 143.746 55.8785 143.131 54.4446 142.007C54.0216 142.536 53.5413 143.016 53.0107 143.438L52.8315 143.589C52.4515 143.911 52.05 144.197 51.6199 144.455C51.1108 144.763 50.5731 145.028 50.0139 145.243C48.2001 145.937 46.2213 146.08 44.3214 145.658C45.6693 146.582 47.2537 147.076 48.8883 147.09C49.6124 147.09 50.3365 147.004 51.0391 146.811C51.3546 146.725 51.6629 146.625 51.964 146.503C52.8028 146.166 53.5843 145.701 54.2725 145.114C58.101 148.379 63.858 147.92 67.1272 144.097C67.1416 144.076 67.1631 144.061 67.1774 144.04C65.8941 147.82 62.3596 150.383 58.3591 150.434C56.3517 150.434 54.4016 149.768 52.8172 148.543C54.7744 152.123 59.0545 154.608 64.0157 154.608C66.5393 154.622 69.0199 153.942 71.1851 152.653C73.1423 154.157 75.5512 154.951 78.0247 154.923C80.8566 154.973 83.5953 153.913 85.6457 151.959C87.3377 153.448 89.5172 154.271 91.7684 154.278C94.8799 154.243 97.7763 152.696 99.54 150.14C102.185 151.98 105.333 152.961 108.559 152.932C114.144 152.932 118.976 150.14 121.299 146.073C120.001 146.539 118.639 146.782 117.263 146.789C113.248 146.789 109.749 144.892 107.942 142.107C105.992 143.188 103.784 143.725 101.555 143.646C100.73 143.61 99.9056 143.474 99.1098 143.252C102.637 141.326 106.107 137.847 108.975 133.243V133.243Z" fill="black"/>
<path d="M70.1741 60.8583C71.0488 59.4837 71.8159 58.0446 72.4898 56.5625H59.0186C61.5924 60.0994 62.9474 64.3666 62.8828 68.7341V68.8987C65.7578 66.6577 68.224 63.937 70.1741 60.8583Z" fill="white"/>
<path d="M68.1097 31.8963C68.6761 31.6815 69.2496 31.4811 69.816 31.3021C73.3505 30.135 77.0499 29.5193 80.7708 29.4907C79.1577 28.746 77.4227 28.3021 75.6519 28.1876C78.2113 27.2926 80.9357 26.9704 83.6314 27.2425C82.7424 26.6554 82.1832 25.6817 82.1258 24.6149C82.0255 23.5123 82.2262 22.4025 82.7065 21.4073C82.8714 21.0493 83.0722 20.7128 83.3016 20.3906C81.1436 20.6913 79.0502 21.3429 77.1001 22.3238C76.2971 22.7247 75.5157 23.1829 74.77 23.6841V25.9752L74.5263 26.0755C73.5369 26.4836 72.5762 26.9633 71.6585 27.5074C71.0205 27.8797 70.3967 28.2878 69.8017 28.7317C69.7587 28.7532 69.7156 28.7818 69.6798 28.8176C68.0739 29.999 66.6471 31.4095 65.457 33.0061C65.8513 32.8271 66.2528 32.6481 66.6615 32.4763C67.0701 32.3044 67.615 32.0753 68.1097 31.8963V31.8963Z" fill="white"/>
<path d="M86.5921 18.3429C86.6351 17.8632 86.2838 17.4479 85.8034 17.4049C85.3231 17.362 84.9073 17.7128 84.8643 18.1925C84.8643 18.2426 84.8643 18.2999 84.8643 18.35V30.7149C85.4521 30.8008 86.0257 30.8939 86.5921 31.0156V18.3429Z" fill="white"/>
<path d="M128.239 88.3872C128.074 84.5424 127.465 80.7263 126.418 77.0247C126.375 76.8672 126.325 76.7025 126.275 76.5522H115.277C118.144 72.1919 119.851 67.8459 120.295 63.8436C120.761 60.6361 120.166 57.3712 118.596 54.536C115.886 49.8177 110.409 47.1614 103.433 46.5385C103.906 44.4121 103.72 42.1854 102.902 40.1664C99.2747 31.5174 83.9896 29.6773 68.7761 36.0495C67.4426 36.608 66.145 37.2165 64.9047 37.8609C65.5284 38.3979 66.0805 39.0136 66.5536 39.6938C67.9588 41.7773 68.5539 44.2904 68.2456 46.782C68.1954 47.276 68.1166 47.77 68.009 48.2569C67.5717 50.19 66.7759 52.0229 65.6718 53.6625C67.1774 52.4238 68.7475 51.2711 70.3821 50.2115C70.7764 49.9609 71.1635 49.7103 71.565 49.4955C72.3895 48.98 73.2498 48.486 74.1245 48.0063C86.0615 41.4981 97.5899 40.8465 100.221 46.4168C96.3567 46.4311 92.5139 46.8822 88.75 47.7557C84.1473 48.8082 79.6521 50.3117 75.3433 52.2377C74.9776 52.4596 74.6263 52.6887 74.2679 52.9537C77.3579 57.8652 78.1178 63.8937 76.3398 69.4211C75.9383 70.6669 75.415 71.8625 74.7697 73.0009C73.9309 74.3112 73.0132 75.5713 72.0239 76.767C72.3967 74.6047 72.6333 72.4138 72.7408 70.223H49.426C49.9565 71.1824 50.5157 72.3709 50.9746 73.3947C52.2364 76.4305 53.1469 79.6094 53.6918 82.8527C54.631 88.5018 54.7313 94.2654 53.9785 99.9431C53.6559 102.449 53.1756 104.933 52.5447 107.382C51.3761 112.064 49.5694 116.561 47.1748 120.749C50.7667 118.623 54.4876 116.725 58.316 115.072L58.4451 114.764C58.4451 114.764 58.4451 114.714 58.4451 114.685C58.9756 113.167 60.6819 107.425 60.6819 95.8477C60.6819 82.5162 58.1511 76.7741 57.9934 76.4305C59.9793 78.0915 61.5781 80.175 62.6822 82.5162C62.9761 83.1248 63.2557 83.7549 63.5066 84.4064C65.8654 90.528 66.2095 98.5755 64.0515 106.867C63.9798 107.153 63.8938 107.446 63.8149 107.733C63.7361 108.019 63.5998 108.485 63.4851 108.857C63.0621 110.239 62.5818 111.578 62.0513 112.866C61.9294 113.153 61.8147 113.439 61.6856 113.726C59.8574 118 57.2836 121.916 54.0861 125.296C58.273 123.212 62.5818 121.386 66.991 119.833L68.1882 119.41C80.7347 115.115 92.643 113.253 101.167 113.84V112.501L117.843 99.9502H120.181V102.757L108.645 114.556L108.523 115.215C112.258 116.06 114.976 118.143 115.341 120.9C115.442 121.644 115.37 122.403 115.133 123.112C123.651 114.979 128.856 102.385 128.239 88.3872V88.3872ZM74.9633 76.5522C76.1319 75.9436 77.3364 75.3565 78.548 74.8052C94.3206 67.76 109.642 68.1323 112.696 75.6429C112.818 75.9364 112.918 76.2443 112.99 76.5522H74.9633Z" fill="white"/>
<path d="M92.4136 150.405C90.5639 150.412 88.7429 150.004 87.0796 149.195C88.1908 151.02 90.1122 152.195 92.2487 152.352C94.2203 152.352 96.0843 151.436 97.3031 149.889C97.5182 149.646 97.7189 149.388 97.8982 149.123C97.4895 149.331 97.0737 149.51 96.6435 149.66C95.2885 150.154 93.8546 150.405 92.4136 150.405V150.405Z" fill="white"/>
<path d="M108.781 150.512C107.326 150.369 105.935 149.846 104.745 149.009C104.035 149.352 103.304 149.632 102.544 149.839C103.834 150.835 105.383 151.45 107.003 151.615C109.355 151.83 111.699 151.107 113.52 149.596C112.065 150.355 110.416 150.677 108.781 150.512Z" fill="white"/>
<path d="M104.673 146.009C105.276 146.711 106.007 147.298 106.824 147.727C109.104 148.866 111.75 149.023 114.144 148.164C112.101 148.221 110.086 147.627 108.409 146.46C107.685 145.937 107.061 145.293 106.566 144.556C107.025 144.147 107.455 143.711 107.864 143.253C107.348 143.568 106.817 143.847 106.272 144.097C105.505 144.441 104.709 144.713 103.899 144.921C103.369 145.057 102.824 145.157 102.279 145.221C102.049 145.221 101.813 145.272 101.562 145.279C100.917 145.336 100.271 145.336 99.6262 145.279L99.1458 145.221C97.0308 144.935 95.0664 143.968 93.5537 142.472C92.93 141.849 92.3994 141.14 91.9693 140.374C91.7757 140.031 91.6036 139.68 91.4602 139.315C91.3885 139.143 91.324 138.971 91.2667 138.792C90.9369 139.243 90.5856 139.665 90.2056 140.074C89.0657 141.241 87.7322 142.207 86.2696 142.937C85.8753 143.145 85.4666 143.331 85.0436 143.503C84.6207 143.675 84.1188 143.861 83.6098 144.011C83.0792 144.183 82.5344 144.319 81.9895 144.434C81.502 144.541 81.0001 144.627 80.4911 144.692C78.2686 144.985 76.0102 144.842 73.8451 144.284C73.5368 144.198 73.2285 144.112 72.9346 144.004C73.2285 144.312 73.544 144.606 73.8738 144.878C76.1751 146.854 79.2078 147.77 82.2189 147.405C82.7996 147.334 83.3732 147.205 83.9324 147.033C84.0041 147.019 84.0829 146.997 84.1546 146.968C84.6493 146.804 85.1297 146.603 85.5885 146.36L85.861 146.224C87.7322 145.2 89.2807 143.668 90.3203 141.806C90.6143 143.568 91.5104 145.178 92.8583 146.36L93.016 146.496C94.5502 147.699 96.4716 148.286 98.4145 148.15C98.8017 148.135 99.1817 148.092 99.5616 148.035C99.8771 147.985 100.185 147.921 100.494 147.835C101.232 147.663 101.949 147.427 102.644 147.119C103.347 146.804 104.028 146.431 104.673 146.009V146.009Z" fill="white"/>
<path d="M72.5977 149.138C72.0457 148.837 71.5295 148.479 71.0635 148.057C69.7873 150.248 67.4573 151.608 64.9193 151.637C64.6612 151.637 64.4031 151.622 64.145 151.594C66.5826 152.617 69.393 152.174 71.4004 150.448C72.863 151.987 74.9062 152.847 77.0356 152.818C79.932 152.911 82.599 151.271 83.8106 148.644C82.0326 149.832 79.9392 150.448 77.8027 150.412C75.9888 150.427 74.1965 149.99 72.5977 149.138V149.138Z" fill="white"/>
<path d="M71.9165 127.823C72.8199 127.966 73.7375 127.702 74.4258 127.107C74.3684 127.107 74.3183 127.107 74.2609 127.107C72.7195 126.785 71.766 124.888 71.7229 122.446L69.2495 123.341C69.3929 125.69 70.3751 127.494 71.9165 127.823V127.823Z" fill="#FFA400"/>
<path d="M97.6834 142.679C101.182 136.414 104.401 127.4 106.473 117.169C106.638 116.367 106.788 115.572 106.932 114.785L104.258 114.334L117.837 102.878V101.668L102.845 113.367C102.845 114.026 102.845 114.677 102.795 115.336C102.408 126.426 100.207 136.264 97.1313 142.436L97.6834 142.679Z" fill="#FFA400"/>
<path d="M98.8232 142.114C100.766 140.789 102.508 139.2 104.007 137.388C103.727 137.023 103.426 136.672 103.118 136.286C102.809 135.899 102.594 135.691 102.336 135.412C101.325 137.725 100.157 139.966 98.8232 142.114V142.114Z" fill="#FFA400"/>
<path d="M105.118 136.035C105.634 135.362 106.136 134.646 106.623 133.887C106.215 133.214 105.72 132.455 105.19 131.689C104.903 131.274 104.594 130.866 104.301 130.486C103.899 131.589 103.49 132.634 103.067 133.68C103.498 134.123 103.971 134.646 104.422 135.183C104.673 135.448 104.896 135.727 105.118 136.035V136.035Z" fill="#FFA400"/>
<path d="M107.641 132.24C108.057 131.525 108.459 130.809 108.839 130.093C108.452 129.262 107.9 128.138 107.297 127.085C106.896 126.369 106.458 125.696 106.079 125.131C105.727 126.305 105.362 127.451 104.989 128.56C105.469 129.147 106.071 129.914 106.623 130.708C106.982 131.209 107.326 131.739 107.641 132.24V132.24Z" fill="#FFA400"/>
<path d="M110.495 126.499L110.667 126.055C110.043 123.606 109.025 121.272 107.663 119.139C107.362 120.442 107.032 121.723 106.695 122.969C107.061 123.485 107.993 124.824 108.796 126.22C109.162 126.857 109.513 127.501 109.8 128.103C110.043 127.573 110.273 127.043 110.495 126.499V126.499Z" fill="#FFA400"/>
<path d="M79.0571 141.198C80.1541 141.055 81.2438 140.854 82.3192 140.589C82.8067 140.46 83.2799 140.324 83.7531 140.174C87.4095 139.021 90.3561 137.16 92.0337 135.005C92.2775 136.902 93.0661 138.692 94.3064 140.152C94.4713 140.353 94.6434 140.539 94.8226 140.718C94.9947 140.89 95.1811 141.047 95.3675 141.205C95.5539 141.362 95.6471 141.441 95.7905 141.549C96.9304 139.036 97.8553 136.429 98.5435 133.759C94.6219 134.16 90.7504 134.976 87.0008 136.193C82.6132 137.632 78.3259 139.358 74.1748 141.37L74.8917 141.405H75.8668C76.935 141.398 77.9961 141.327 79.0571 141.198Z" fill="#FFA400"/>
<path d="M69.8374 138.391C70.5758 139.085 71.3645 139.73 72.2033 140.303C76.806 138.026 81.5665 136.078 86.4488 134.467C90.5139 133.121 94.7295 132.262 98.9953 131.911C99.325 130.479 99.6262 129.047 99.8914 127.479C95.8407 127.766 91.8474 128.596 88.0189 129.964C81.7027 132.183 75.6159 135.004 69.8374 138.391V138.391Z" fill="#FFA400"/>
<path d="M68.554 137.038C74.5619 133.501 80.8925 130.558 87.4668 128.246C94.077 126.026 98.5578 125.697 100.214 125.661C100.422 124.229 100.608 122.747 100.759 121.229C96.7583 121.437 92.8152 122.282 89.0799 123.728C81.0287 126.663 76.978 129.491 76.9422 129.513C76.9063 129.534 80.1541 125.052 88.4562 122.024C94.6577 119.761 99.0525 119.425 100.917 119.411C101.017 118.179 101.089 116.933 101.139 115.666C93.5823 116.668 86.2767 119.096 79.6307 122.826L78.5266 123.441C78.4836 123.585 78.4406 123.728 78.4047 123.864C77.2218 127.709 74.1748 130.236 71.5795 129.513C69.529 128.94 68.3819 126.484 68.5899 123.57L63.5713 125.389C63.8079 128.017 64.5535 130.573 65.7795 132.914C66.5322 134.396 67.4643 135.778 68.554 137.038V137.038Z" fill="#FFA400"/>
<path d="M97.389 91.5092C98.0629 87.1274 100.63 83.2612 104.408 80.9414H85.7674C89.5457 83.2612 92.1123 87.1274 92.7863 91.5092C88.3986 90.829 84.5343 88.2658 82.2114 84.4855V103.101C84.5343 99.3276 88.4058 96.7644 92.7934 96.0914C92.1267 100.48 89.56 104.354 85.7746 106.681H104.415C100.637 104.361 98.0701 100.495 97.3962 96.1129C101.777 96.7788 105.641 99.3348 107.971 103.101V84.4855C105.648 88.2587 101.777 90.8218 97.389 91.4949" fill="#E2231A"/>
</svg>
