<svg width="87" height="87" viewBox="0 0 87 87" fill="none" xmlns="http://www.w3.org/2000/svg">
<circle cx="43.5" cy="43.5" r="43.5" fill="#3F3F3F"/>
<path d="M66.7184 44.0519H66.8903L74 32H72.5165L66.0586 42.952H65.1149H63.7354L70.1972 32H68.7137L62.2558 42.952H57.0655H56.7417L50.2838 32H36.7162L30.2583 42.952H29.9344H24.7441L18.2863 32H16.8028L23.2606 42.952H21.8851H20.9414L14.4835 32H13L20.1057 44.0519H20.2816H21.2373L14.7794 55H16.2589L22.7208 44.0519H23.9124H25.3919H29.9344H30.2583L36.7162 55H50.2838L56.7417 44.0519H57.0655H61.6081H63.0876H64.2792L70.7411 55H72.2206L65.7627 44.0519H66.7184Z" fill="white"/>
<path d="M49.5001 33.3223H37.5001L31.498 43.4993L37.5001 53.6762H49.5001L55.5022 43.4993L49.5001 33.3223Z" fill="#808080"/>
<path d="M38.9516 51.2155L34.4011 43.5005H33.0176L38.2559 52.3898L38.9516 51.2155ZM52.5872 43.5005L48.0486 51.2155L48.7404 52.3898L53.9827 43.5005H52.5872ZM48.7404 34.6113H38.2559L38.9516 35.7856H48.0486" fill="white"/>
</svg>
