<svg width="87" height="87" viewBox="0 0 87 87" fill="none" xmlns="http://www.w3.org/2000/svg">
<circle cx="43.5" cy="43.5" r="43.5" fill="#3F3F3F"/>
<path d="M19.9219 48.7705L25.5043 19.6717L26.0677 19.5608C37.4155 17.2844 49.1024 17.2844 60.4502 19.5608L61.0136 19.6717L66.596 48.7705L43.2589 74.0452L19.9219 48.7705Z" fill="#808080"/>
<path d="M43.2589 18.7072C48.9749 18.7127 54.6763 19.2846 60.2795 20.4144L65.6827 48.523L43.2589 72.7819L20.8352 48.5059L26.2384 20.4144C31.8416 19.2846 37.543 18.7127 43.2589 18.7072M43.2589 17C37.4324 16.996 31.6196 17.5678 25.9055 18.7072L24.7788 18.9291L24.5654 20.0729L19.1622 48.1816L19 49.0351L19.589 49.6668L42.0469 73.9428L43.3016 75.3L44.5564 73.9428L66.9375 49.6668L67.5179 49.0351L67.3557 48.1816L61.961 20.0729L61.7391 18.9462L60.6209 18.7072C54.9039 17.5678 49.0884 16.996 43.2589 17V17Z" fill="#221F20"/>
<path d="M25.0685 48.6845L24.0527 47.5919L24.343 46.1152L25.1795 46.2774L24.9746 47.3273L25.7002 48.1041L25.0685 48.6845Z" fill="#221F20"/>
<path d="M25.6407 43.8802L24.7871 43.718L25.248 41.3194L26.1016 41.4816L25.6407 43.8802ZM26.5626 39.0745L25.709 38.9123L26.1699 36.5137L27.0235 36.6759L26.5626 39.0745ZM27.4844 34.2688L26.6309 34.1152L27.0918 31.708L27.9454 31.8702L27.4844 34.2688ZM28.3892 29.4716L27.5357 29.3095L27.9966 26.9023L28.8502 27.0645L28.3892 29.4716Z" fill="#221F20"/>
<path d="M29.3282 24.682L28.4746 24.5198L28.7904 22.9748L29.0807 22.9236C29.4989 22.8553 29.9342 22.7785 30.3525 22.7188L30.4805 23.5723L29.516 23.7345L29.3282 24.682Z" fill="#221F20"/>
<path d="M32.7936 23.214L32.6826 22.3604C33.4594 22.258 34.2447 22.1726 35.0214 22.0958L35.1068 22.9494C34.3642 23.0262 33.5618 23.1115 32.7936 23.214ZM53.7235 23.214C52.9553 23.1201 52.1785 23.0262 51.4103 22.9494L51.4957 22.0958C52.2724 22.1726 53.0577 22.258 53.8345 22.3604L53.7235 23.214ZM49.08 22.753C48.3118 22.7018 47.535 22.6591 46.7583 22.625V21.7714C47.5436 21.8056 48.3289 21.8482 49.1142 21.8994L49.08 22.753ZM37.4286 22.753L37.3688 21.8994C38.1541 21.8482 38.9394 21.8056 39.7247 21.7714V22.625C38.9963 22.6591 38.2309 22.7018 37.4286 22.753V22.753ZM44.428 22.5567H42.0891V21.7031H44.4365L44.428 22.5567Z" fill="#221F20"/>
<path d="M57.1895 24.6815L57.0017 23.7169L56.0371 23.5548L56.1737 22.7012L57.4114 22.906L57.7016 22.9572L58.0004 24.5022L57.1895 24.6815Z" fill="#221F20"/>
<path d="M60.877 43.8802L60.416 41.4816L61.2696 41.3194L61.6793 43.718L60.877 43.8802ZM59.9721 39.0745L59.5112 36.6759L60.3648 36.5137L60.8257 38.9123L59.9721 39.0745ZM59.0332 34.2688L58.5723 31.8702L59.4259 31.708L59.8868 34.1152L59.0332 34.2688ZM58.1113 29.4716L57.6504 27.0645L58.504 26.9023L58.9649 29.3095L58.1113 29.4716Z" fill="#221F20"/>
<path d="M61.449 48.6845L60.8174 48.1041L61.5429 47.3273L61.3381 46.2774L62.1831 46.1152L62.4648 47.5919L61.449 48.6845Z" fill="#221F20"/>
<path d="M46.3152 65.056L45.6836 64.4755L47.5786 62.4269L48.2017 63.0074L46.3152 65.056ZM50.0966 60.9588L49.465 60.3869L51.3514 58.3382L51.9831 58.9187L50.0966 60.9588ZM53.8695 56.8701L53.2634 56.264L55.1499 54.224L55.7815 54.7959L53.8695 56.8701ZM57.6509 52.7814L57.0192 52.201L58.9142 50.1523L59.5373 50.7328L57.6509 52.7814Z" fill="#221F20"/>
<path d="M43.259 68.3862L42.0811 67.1058L42.7042 66.5254L43.259 67.1229L43.8138 66.5254L44.4455 67.0973L43.259 68.3862Z" fill="#221F20"/>
<path d="M40.1857 65.056L38.2993 63.0074L38.9224 62.4269L40.8174 64.4755L40.1857 65.056ZM36.4129 60.9588L34.5179 58.9187L35.1496 58.3382L37.036 60.3869L36.4129 60.9588ZM32.6571 56.8701L30.7621 54.8215L31.3938 54.2496L33.2546 56.264L32.6571 56.8701ZM28.8757 52.7814L26.9893 50.7328L27.6124 50.1523L29.5073 52.201L28.8757 52.7814Z" fill="#221F20"/>
</svg>
