<svg width="87" height="87" viewBox="0 0 87 87" fill="none" xmlns="http://www.w3.org/2000/svg">
<circle cx="43.5" cy="43.5" r="43.5" fill="#3F3F3F"/>
<mask id="mask0_293_63" style="mask-type:alpha" maskUnits="userSpaceOnUse" x="0" y="0" width="87" height="87">
<circle cx="43.5" cy="43.5" r="43.5" fill="#D9D9D9"/>
</mask>
<g mask="url(#mask0_293_63)">
<path d="M47.3958 105.198V72.0406C54.0184 71.0214 60.0736 67.6941 64.4865 62.6395C68.9951 57.4753 71.4858 50.8559 71.4997 44.0005L71.4997 43.9987C71.4897 37.1393 69.0011 30.5147 64.4924 25.3452C60.0793 20.2853 54.022 16.9533 47.3958 15.9306V-17.1992V-17.6992H46.8958H39.2599H38.7599V-17.1992V15.9298C32.1293 16.9409 26.0655 20.2686 21.6497 25.3295C17.1381 30.5002 14.6523 37.1302 14.6523 43.9925C14.6523 50.8548 17.1381 57.4847 21.6497 62.6555C26.0655 67.7164 32.1293 71.0441 38.7599 72.0552V105.198V105.698H39.2599H46.8958H47.3958V105.198ZM27.8284 56.5984C24.8953 53.0539 23.2865 48.5995 23.278 43.9988C23.2809 39.3954 24.8872 34.9368 27.8209 31.3892C30.6256 27.9975 34.4761 25.6411 38.7599 24.6826V63.302C34.4796 62.3418 30.6323 59.9868 27.8284 56.5984ZM58.3115 56.5908C55.5141 59.9804 51.6721 62.3381 47.3958 63.3015V24.6835C51.6721 25.6468 55.5141 28.0046 58.3115 31.3942C61.238 34.9404 62.8386 39.3947 62.8386 43.9925C62.8386 48.5903 61.238 53.0446 58.3115 56.5908Z" fill="#808080" stroke="#221F20"/>
</g>
</svg>
