<svg width="87" height="87" viewBox="0 0 87 87" fill="none" xmlns="http://www.w3.org/2000/svg">
<circle cx="43.5" cy="43.5" r="43.5" fill="#3F3F3F"/>
<mask id="mask0_293_98" style="mask-type:alpha" maskUnits="userSpaceOnUse" x="0" y="0" width="87" height="87">
<circle cx="43.5" cy="43.5" r="43.5" fill="#D9D9D9"/>
</mask>
<g mask="url(#mask0_293_98)">
<path d="M20.2539 28C27.9088 30.2545 35.8527 31.3752 43.8325 31.3263C51.4778 31.2676 59.0779 30.1481 66.4154 28C66.9585 33.114 67.5242 38.2053 68.0673 43.3193L47.1588 70.179L21.589 49.0895L20.2539 28Z" fill="#8F935F"/>
<path d="M85.4887 91.1545V178.588H1.15769V91.1092V90.0431L0.337994 90.7248L-10.5462 99.7761L-10.5481 99.7777L-13.5664 102.313L-22.7694 91.7547L-22.7703 91.7537L-35.3443 77.2537L-32.6284 73.9823L-32.6278 73.9815L-5.47844 41.1534C-5.4777 41.1525 -5.47695 41.1516 -5.47621 41.1508C-3.22037 38.5007 -0.324322 36.4716 2.93673 35.2561L2.93676 35.2562L2.94421 35.2533L15.0906 30.5033L15.0956 30.5014L17.8916 29.4423L20.7792 30.6455C22.8043 35.3321 28.3084 45.1838 43.0856 53.6633L43.3345 53.8061L43.5833 53.6633C58.361 45.1836 63.8429 35.3315 65.8671 30.6455L68.7548 29.4423L71.5514 30.5016L71.5558 30.5033L83.748 35.2535L83.7503 35.2544C86.9997 36.5015 89.8742 38.5623 92.0984 41.2394L119.251 74.0946L119.251 74.0947L119.26 74.1042L122.007 77.2613L109.439 91.7545L109.438 91.7547L100.234 102.359L97.1932 99.8219L97.1925 99.8213L86.3083 90.7701L85.4887 90.0884V91.1545Z" fill="#808080" stroke="white"/>
<path d="M43.3341 53.2305V58.616C29.1236 54.2487 18.1263 36.4403 14.9131 30.0365L17.4927 29.0635L20.2533 28C20.7738 28.8372 24.2359 42.2784 43.3341 53.2305Z" fill="white"/>
<path d="M43.334 53.2305V58.616C57.5445 54.5655 68.5418 36.4403 71.7324 30.0365L69.1754 29.0635L66.4147 28C65.8264 28.8372 62.4322 42.2784 43.334 53.2305Z" fill="white"/>
</g>
</svg>
