<svg width="87" height="87" viewBox="0 0 87 87" fill="none" xmlns="http://www.w3.org/2000/svg">
<circle cx="43.5" cy="43.5" r="43.5" fill="#3F3F3F"/>
<mask id="mask0_293_85" style="mask-type:alpha" maskUnits="userSpaceOnUse" x="0" y="0" width="87" height="87">
<circle cx="43.5" cy="43.5" r="43.5" fill="#D9D9D9"/>
</mask>
<g mask="url(#mask0_293_85)">
<path d="M-29.7461 -7C-22.0912 -4.74549 -14.1473 -3.62481 -6.16751 -3.67365C1.47777 -3.73244 9.07791 -4.85189 16.4154 -7C16.9585 -1.88603 17.5242 3.20532 18.0673 8.31929L-2.84116 35.179L-28.411 14.0895L-29.7461 -7Z" fill="#8F935F"/>
<path d="M73.0467 42.5884L73.3313 42.2602L73.0462 41.9326L70.0222 38.4575L70.014 38.4478L42.8684 5.60135L42.8675 5.60036C40.5342 2.79188 37.5187 0.6298 34.1099 -0.678683C34.1095 -0.678846 34.1091 -0.679009 34.1086 -0.679172L21.9144 -5.43018L21.9144 -5.4302L21.91 -5.43187L18.9231 -6.56328L18.7372 -6.6337L18.5537 -6.55724L15.2952 -5.19955L15.107 -5.12116L15.0273 -4.93358C13.1489 -0.513693 7.9006 9.21844 -6.66551 17.6525C-21.2323 9.21818 -26.5028 -0.514257 -28.381 -4.93358L-28.4607 -5.12116L-28.6488 -5.19955L-31.9073 -6.55724L-32.0908 -6.6337L-32.2767 -6.56328L-35.2637 -5.43187L-35.2637 -5.4319L-35.2686 -5.42995L-47.4163 -0.679483C-50.8367 0.596081 -53.8742 2.72511 -56.24 5.50533L-56.2401 5.50529L-56.2445 5.51071L-83.3978 38.3435L-83.3984 38.3442L-86.3847 41.9414L-86.6557 42.2678L-86.3777 42.5884L-73.5249 57.4098L-73.5241 57.4108L-63.9976 68.3402L-63.675 68.7103L-63.2991 68.3945L-59.9068 65.545L-59.9049 65.5434L-49.8423 57.1753V144.088V144.588H-49.3423H35.9887H36.4887V144.088V57.2206L46.5525 65.5897L46.5531 65.5902L49.9693 68.4408L50.3458 68.755L50.6673 68.3847L60.1937 57.41L60.1939 57.4098L73.0467 42.5884Z" fill="#808080" stroke="white"/>
<path d="M-6.66602 18.2305V23.616C7.5445 19.5655 18.5418 1.44032 21.7324 -4.96346L19.1754 -5.93647L16.4147 -7C15.8264 -6.16276 12.4322 7.2784 -6.66602 18.2305Z" fill="#221F20"/>
<path d="M72.6692 42.2619L59.8164 57.0834L50.2899 68.0581L46.873 65.2069L56.3316 54.187L69.6596 38.6641L69.7049 38.7093L72.6692 42.2619Z" fill="white"/>
</g>
</svg>
